<svg width="32" height="32" viewBox="0 0 32 32" fill="none" xmlns="http://www.w3.org/2000/svg">
<path d="M22.5405 7.01367H9.45945L7.0332 1.9826H24.9667L22.5405 7.01367Z" fill="#D7D7D7"/>
<path d="M22.5405 7.01367H16V1.9826H24.9667L22.5405 7.01367Z" fill="#B0B0B0"/>
<path d="M17.0435 7.99237H14.9565V11.5555H17.0435V7.99237Z" fill="#C2E2FD"/>
<path d="M17.0435 7.99237H16V11.5555H17.0435V7.99237Z" fill="#67B5F8"/>
<path d="M10.5748 10.8712L12.5312 11.5976L13.7715 8.25734L11.8151 7.5309L10.5748 10.8712Z" fill="#C2E2FD"/>
<path d="M18.2282 8.2563L19.4685 11.5966L21.425 10.8701L20.1847 7.52986L18.2282 8.2563Z" fill="#67B5F8"/>
<path d="M8.0907 31.3605H5.18008C4.43445 31.3605 3.83008 30.7561 3.83008 30.0105V27.5473C3.83008 26.8016 4.43445 26.1973 5.18008 26.1973H8.0907C8.83633 26.1973 9.4407 26.8017 9.4407 27.5473V30.0105C9.44064 30.7561 8.8362 31.3605 8.0907 31.3605Z" fill="#444444"/>
<path d="M26.82 31.3605H23.9093C23.1637 31.3605 22.5593 30.7561 22.5593 30.0105V27.5473C22.5593 26.8016 23.1638 26.1973 23.9093 26.1973H26.82C27.5656 26.1973 28.17 26.8017 28.17 27.5473V30.0105C28.17 30.7561 27.5656 31.3605 26.82 31.3605Z" fill="#282828"/>
<path d="M6.47755 20.3625H4.17837L3.33049 18.8506C3.02687 18.3092 3.0328 17.6662 3.34655 17.1305C3.6603 16.5948 4.2183 16.275 4.83899 16.275H7.34243V17.9565L6.47755 20.3625Z" fill="#6F6F6F"/>
<path d="M27.8217 20.3625H25.5225L24.6575 17.9566V16.2751H27.1609C27.7817 16.2751 28.3396 16.5949 28.6533 17.1306C28.9671 17.6662 28.9732 18.3093 28.6694 18.8507L27.8217 20.3625Z" fill="#444444"/>
<path d="M26.1135 18.681L23.9911 12.7776H8.00877L5.88639 18.681H3.83008V27.8788H28.1698V18.681H26.1135Z" fill="#BF0F36"/>
<path d="M28.1699 18.681H26.1135L23.9912 12.7775H16V27.8788H28.1699V18.681Z" fill="#9D092B"/>
<path d="M9.19122 14.459H22.8088L24.3267 18.681H7.67334L9.19122 14.459Z" fill="#C2E2FD"/>
<path d="M9.2196 24.6936C10.1271 24.6936 10.8628 23.9579 10.8628 23.0504C10.8628 22.1429 10.1271 21.4072 9.2196 21.4072C8.3121 21.4072 7.57642 22.1429 7.57642 23.0504C7.57642 23.9579 8.3121 24.6936 9.2196 24.6936Z" fill="#F4DA49"/>
<path d="M22.7799 24.6936C23.6874 24.6936 24.4231 23.9579 24.4231 23.0504C24.4231 22.1429 23.6874 21.4072 22.7799 21.4072C21.8724 21.4072 21.1367 22.1429 21.1367 23.0504C21.1367 23.9579 21.8724 24.6936 22.7799 24.6936Z" fill="#E69824"/>
<path d="M22.8088 14.459H16V18.681H24.3267L22.8088 14.459Z" fill="#67B5F8"/>
</svg>
