<svg width="32" height="32" viewBox="0 0 32 32" fill="none" xmlns="http://www.w3.org/2000/svg">
<path d="M18.9598 21.915C20.2127 20.9628 21.0331 19.4686 21.0682 17.7811H15.2718L10.6283 16.1288C10.4823 16.6161 10.4031 17.1317 10.4031 17.6659C10.4031 18.6317 10.6595 19.537 11.1082 20.3183L11.0808 20.3339L15.6892 25.6659L7.99976 28.3329V30.9999H26.7401L18.9598 21.915Z" fill="#434A54"/>
<path d="M18.7236 10.3329H16V11.666H18.7236V10.3329Z" fill="#CCD1D9"/>
<path d="M15.333 2.99994H13.1328C13.2622 3.20794 13.333 3.43257 13.333 3.66595C13.333 3.90034 13.2622 4.1249 13.1328 4.33291H15.333V5.54094V9.66591V10.9999V16.8769H16.6665V9.66591V5.54094V4.33297C16.6665 3.59664 16.0693 2.99994 15.333 2.99994Z" fill="#CCD1D9"/>
<path d="M25.333 12.333C25.333 13.0692 24.7363 13.6659 24 13.6659H19.333C18.5967 13.6659 18 13.0692 18 12.333V9.66592C18 8.92959 18.5967 8.33295 19.333 8.33295H24C24.7363 8.33295 25.333 8.92959 25.333 9.66592V12.333Z" fill="#656D78"/>
<path d="M31.5957 20.4667C31.3457 20.1367 31.0078 19.8945 30.6191 19.7646L20.5292 16.4023L20.3242 16.334H20.1073L12.9023 16.3359L3.49902 5.6767C3.11914 5.24601 2.57275 4.99994 1.99998 4.99994C0.896959 4.99994 0 5.89646 0 6.99999C0 7.48725 0.177692 7.95701 0.500949 8.3232L10.6992 19.8847L11.0971 20.3359H11.6992L19.6757 20.3349L29.3671 23.5633C29.5713 23.6317 29.7841 23.6659 30 23.6659C31.1025 23.6659 32 22.7694 32 21.666C32 21.2324 31.8594 20.8173 31.5957 20.4667Z" fill="#48CFAD"/>
<path opacity="0.2" d="M1.99998 6.33297C2.57275 6.33297 3.11914 6.58004 3.49902 7.01074L12.9023 17.6689L20.1073 17.6679H20.3242L20.5292 17.7362L30.6191 21.0976C31.0078 21.2274 31.3457 21.4706 31.5957 21.7997C31.7207 21.9657 31.8164 22.1454 31.8848 22.3348C31.959 22.1259 32 21.9003 32 21.666C32 21.2323 31.8594 20.8173 31.5957 20.4667C31.3457 20.1366 31.0078 19.8944 30.6191 19.7645L20.5292 16.4023L20.3242 16.3339H20.1073L12.9023 16.3358L3.49902 5.6767C3.11914 5.24601 2.57275 4.99994 1.99998 4.99994C0.896959 4.99994 0 5.89646 0 6.99999C0 7.22849 0.0395009 7.45306 0.11469 7.66594C0.390134 6.89061 1.1309 6.33297 1.99998 6.33297Z" fill="white"/>
<path d="M21.333 11C21.333 10.6318 21.0351 10.3329 20.666 10.3329C20.2988 10.3329 20 10.6318 20 11V13.6659C20 14.0341 20.2988 14.3329 20.666 14.3329C21.0351 14.3329 21.333 14.0341 21.333 13.6659V11Z" fill="#434A54"/>
<path d="M23.3329 11C23.3329 10.6318 23.035 10.3329 22.6659 10.3329C22.2987 10.3329 22 10.6318 22 11V11.001V13.666C22 14.0342 22.2987 14.333 22.6659 14.333C23.035 14.333 23.3339 14.0342 23.3339 13.666V11H23.3329V11Z" fill="#434A54"/>
<path d="M20.6982 23.9452L8 28.3329V30.9999H26.7403L20.6982 23.9452Z" fill="#656D78"/>
<path d="M13.333 3.66594C13.333 4.7714 12.438 5.66593 11.333 5.66593C10.2285 5.66593 9.33301 4.7714 9.33301 3.66594C9.33301 2.56141 10.2285 1.66589 11.333 1.66589C12.438 1.66596 13.333 2.56141 13.333 3.66594Z" fill="#E6E9ED"/>
<path d="M11.333 6.33294C9.86284 6.33294 8.6665 5.13666 8.6665 3.666C8.6665 2.19628 9.86284 1 11.333 1C12.8037 1 14 2.19628 14 3.666C13.9999 5.1366 12.8037 6.33294 11.333 6.33294ZM11.333 2.33291C10.5982 2.33291 9.99997 2.93155 9.99997 3.66594C9.99997 4.40127 10.5981 4.99991 11.333 4.99991C12.0684 4.99991 12.6665 4.40127 12.6665 3.66594C12.6665 2.93155 12.0683 2.33291 11.333 2.33291Z" fill="#CCD1D9"/>
</svg>
