<svg width="32" height="32" viewBox="0 0 32 32" fill="none" xmlns="http://www.w3.org/2000/svg">
<path d="M10.0617 10.5794L7.31885 14.4325L10.6494 20.8977L16.8534 18.3508L19.7268 10.057L10.0617 10.5794Z" fill="#E69329"/>
<path d="M9.47393 28.9302C12.2872 28.9302 14.5677 26.6496 14.5677 23.8364C14.5677 21.0232 12.2872 18.7426 9.47393 18.7426C6.6607 18.7426 4.38013 21.0232 4.38013 23.8364C4.38013 26.6496 6.6607 28.9302 9.47393 28.9302Z" fill="#7A929D"/>
<path d="M9.4739 17.9589C6.20864 17.9589 3.59644 20.5711 3.59644 23.8364C3.59644 27.1016 6.20864 29.7138 9.4739 29.7138C12.7392 29.7138 15.3514 27.1016 15.3514 23.8364C15.3514 20.5711 12.7392 17.9589 9.4739 17.9589ZM9.4739 28.4077C6.927 28.4077 4.90254 26.3833 4.90254 23.8364C4.90254 21.2895 6.927 19.265 9.4739 19.265C12.0208 19.265 14.0453 21.2895 14.0453 23.8364C14.0453 26.3833 12.0208 28.4077 9.4739 28.4077Z" fill="#C7D1D6"/>
<path d="M8.8208 21.8773H10.1269V27.1017H8.8208V21.8773Z" fill="#C7D1D6"/>
<path d="M8.10259 23.8364C8.75565 25.0772 10.1924 25.5996 11.4332 24.9466L22.2085 19.3956C22.8616 19.0691 23.3187 18.612 23.6452 18.1548C24.7554 16.0651 27.3023 11.1672 29.0002 6.92236L17.1147 12.6039L13.9801 17.3059L9.53931 19.6569C7.84137 20.5058 7.31893 22.3997 8.10259 23.8364Z" fill="#FFC877"/>
<path d="M19.4004 2.28571L8.62504 6.39993C8.16791 6.53054 7.64547 7.05298 7.18833 7.51012L3.53124 12.408C2.87819 13.3876 2.74758 14.6284 3.20472 15.7386C3.46594 16.3916 4.3149 17.9589 5.22918 19.7222C6.27406 18.612 7.77608 17.9589 9.47401 17.9589C9.73523 17.9589 10.0618 17.9589 10.323 18.0242L8.95157 15.2814L11.9556 12.6039H17.18C17.18 12.6039 27.3023 11.1672 29.0656 6.92237L19.4004 2.28571Z" fill="#FFCF89"/>
<path d="M11.5637 23.8364C10.7147 24.2282 9.73511 23.8364 9.40859 22.9874C9.01676 22.1384 9.40859 21.1589 10.2576 20.8323C11.0412 20.4405 12.3473 23.4445 11.5637 23.8364Z" fill="#FFCDD2"/>
</svg>
