<svg width="32" height="32" viewBox="0 0 32 32" fill="none" xmlns="http://www.w3.org/2000/svg">
<path d="M17.2832 21.952H14.7185V24.7574H17.2832V21.952Z" fill="#4D4C78"/>
<path d="M12.2038 7.08215H3.05648C2.88053 7.08215 2.71179 7.15205 2.58738 7.27646C2.46296 7.40088 2.39307 7.56962 2.39307 7.74557V24.0921C2.39286 24.1794 2.40987 24.2658 2.44312 24.3465C2.47637 24.4271 2.5252 24.5004 2.58683 24.5622C2.64845 24.624 2.72165 24.673 2.80224 24.7064C2.88283 24.7399 2.96923 24.7571 3.05648 24.7571H14.7185V23.1727C14.7185 23.1461 14.717 23.1195 14.7138 23.0931L12.8625 7.66752C12.8434 7.50623 12.7658 7.35755 12.6444 7.24966C12.523 7.14177 12.3662 7.08217 12.2038 7.08215Z" fill="#67BAEB"/>
<path d="M20.5876 7.6082L17.2971 23.065C17.2872 23.1101 17.282 23.1561 17.2815 23.2024V24.7571H28.9435C29.0308 24.7571 29.1172 24.7399 29.1978 24.7064C29.2784 24.673 29.3516 24.624 29.4132 24.5622C29.4748 24.5005 29.5237 24.4271 29.5569 24.3465C29.5902 24.2658 29.6072 24.1794 29.607 24.0921V7.74557C29.607 7.56962 29.5371 7.40088 29.4126 7.27646C29.2882 7.15205 29.1195 7.08216 28.9435 7.08216H21.237C21.0848 7.08179 20.9371 7.13391 20.8188 7.22973C20.7005 7.32555 20.6189 7.45922 20.5876 7.6082Z" fill="#67BAEB"/>
<path d="M20.6986 7.08215L17.2816 23.1321V21.952H14.7185V23.1321L12.7923 7.08215H3.52319V24.3184L4.19129 24.0437C7.8115 22.5541 11.8655 22.5116 15.5162 23.9251L16.0001 24.1202L16.484 23.9251C20.1346 22.5116 24.1886 22.5541 27.8089 24.0437L28.477 24.3184V7.08215H20.6986Z" fill="#46A1F8"/>
<path d="M16.0001 23.5957C12.1585 22.016 7.84868 22.016 4.00708 23.5957V5.71161C7.84838 4.13039 12.1588 4.13039 16.0001 5.71161V23.5957Z" fill="#C8C2E9"/>
<path d="M25.2003 26.1651L24.3839 25.4845L23.5691 26.1651C23.2928 26.3961 22.8713 26.1994 22.8713 25.8388V21.2168H25.8965V25.8388C25.8965 26.1994 25.4766 26.3961 25.2003 26.1651Z" fill="#F4C23F"/>
<path d="M22.8713 22.9198C23.8934 22.977 24.907 23.1381 25.8965 23.4006V21.2168H22.8713V22.9198Z" fill="#F4A93F"/>
<path d="M16 23.5957C19.8416 22.016 24.1514 22.016 27.993 23.5957V5.71161C24.1517 4.13039 19.8413 4.13039 16 5.71161V23.5957Z" fill="#C8C2E9"/>
<path d="M5.0061 6.60604V5.34009C4.67049 5.45248 4.33645 5.5758 4.00708 5.7116V23.5957C7.8735 22.1471 12.1336 22.1471 16.0001 23.5957V21.7022L15.8923 21.6663C9.38776 19.5418 5.0061 13.4478 5.0061 6.60604Z" fill="#B9B1E0"/>
<path d="M16.999 6.60604V5.34009C16.6619 5.45248 16.3288 5.57632 16 5.7116V23.5957C19.8664 22.1471 24.1266 22.1471 27.993 23.5957V21.7022L27.8853 21.6663C21.3791 19.5418 16.999 13.4478 16.999 6.60604Z" fill="#B9B1E0"/>
<path d="M5.98332 9.34867C5.90979 9.34895 5.83853 9.32327 5.78208 9.27616C5.72563 9.22905 5.68762 9.16353 5.67475 9.09114C5.66187 9.01875 5.67496 8.94414 5.71171 8.88045C5.74845 8.81677 5.8065 8.76809 5.87561 8.74301C8.47959 7.7835 11.3403 7.7835 13.9443 8.74301C13.9828 8.75715 14.0182 8.77875 14.0484 8.80657C14.0786 8.83438 14.103 8.86787 14.1203 8.90512C14.1375 8.94238 14.1472 8.98266 14.1489 9.02368C14.1506 9.0647 14.1442 9.10564 14.1301 9.14418C14.1159 9.18272 14.0943 9.21809 14.0665 9.24829C14.0387 9.27848 14.0052 9.30289 13.9679 9.32014C13.9307 9.33739 13.8904 9.34714 13.8494 9.34882C13.8084 9.3505 13.7674 9.34408 13.7289 9.32994C11.2642 8.42044 8.55575 8.42044 6.09103 9.32994C6.05643 9.34219 6.02002 9.34853 5.98332 9.34867Z" fill="#B9B1E0"/>
<path d="M5.98332 12.658C5.90979 12.6582 5.83853 12.6326 5.78208 12.5854C5.72563 12.5383 5.68762 12.4728 5.67475 12.4004C5.66187 12.328 5.67496 12.2534 5.71171 12.1897C5.74845 12.126 5.8065 12.0774 5.87561 12.0523C8.47923 11.0907 11.3407 11.0907 13.9443 12.0523C13.9845 12.065 14.0217 12.0858 14.0537 12.1134C14.0857 12.1409 14.1117 12.1746 14.1303 12.2125C14.1488 12.2504 14.1595 12.2917 14.1617 12.3338C14.1639 12.376 14.1575 12.4181 14.1429 12.4577C14.1283 12.4973 14.1059 12.5335 14.0769 12.5642C14.0479 12.5949 14.0131 12.6194 13.9744 12.6362C13.9357 12.653 13.894 12.6618 13.8518 12.6621C13.8096 12.6623 13.7678 12.654 13.7289 12.6377C11.2642 11.7282 8.55575 11.7282 6.09103 12.6377C6.05673 12.6512 6.02018 12.658 5.98332 12.658Z" fill="#B9B1E0"/>
<path d="M5.98329 15.9657C5.91051 15.965 5.84026 15.9389 5.78468 15.8919C5.72911 15.8449 5.6917 15.7799 5.67892 15.7083C5.66614 15.6366 5.67881 15.5628 5.71472 15.4994C5.75063 15.4361 5.80753 15.3874 5.87559 15.3616C8.4792 14.4 11.3407 14.4 13.9443 15.3616C13.9845 15.3743 14.0217 15.3951 14.0537 15.4226C14.0856 15.4502 14.1117 15.4839 14.1302 15.5218C14.1488 15.5597 14.1595 15.6009 14.1617 15.6431C14.1638 15.6852 14.1574 15.7274 14.1429 15.767C14.1283 15.8066 14.1059 15.8428 14.0769 15.8735C14.0479 15.9042 14.013 15.9286 13.9743 15.9455C13.9356 15.9623 13.8939 15.9711 13.8517 15.9713C13.8096 15.9716 13.7677 15.9633 13.7289 15.9469C11.2641 15.0374 8.55573 15.0374 6.091 15.9469C6.05641 15.9592 6.01999 15.9655 5.98329 15.9657Z" fill="#B9B1E0"/>
<path d="M5.98332 19.2749C5.90979 19.2752 5.83853 19.2495 5.78208 19.2024C5.72563 19.1553 5.68762 19.0898 5.67475 19.0174C5.66187 18.945 5.67496 18.8704 5.71171 18.8067C5.74845 18.743 5.8065 18.6944 5.87561 18.6693C8.47959 17.7098 11.3403 17.7098 13.9443 18.6693C13.9828 18.6834 14.0182 18.705 14.0484 18.7328C14.0786 18.7607 14.103 18.7941 14.1203 18.8314C14.1375 18.8686 14.1472 18.9089 14.1489 18.9499C14.1506 18.991 14.1442 19.0319 14.1301 19.0704C14.1159 19.109 14.0943 19.1444 14.0665 19.1746C14.0387 19.2047 14.0052 19.2292 13.9679 19.2464C13.9307 19.2637 13.8904 19.2734 13.8494 19.2751C13.8084 19.2768 13.7674 19.2703 13.7289 19.2562C11.2642 18.3467 8.55575 18.3467 6.09103 19.2562C6.05643 19.2685 6.02002 19.2748 5.98332 19.2749Z" fill="#B9B1E0"/>
<path d="M25.8294 9.34867C25.7927 9.34853 25.7563 9.34219 25.7217 9.32994C23.257 8.42044 20.5486 8.42044 18.0839 9.32994C18.0061 9.3585 17.9201 9.35498 17.8448 9.32014C17.7696 9.28531 17.7113 9.22201 17.6827 9.14418C17.6541 9.06635 17.6577 8.98036 17.6925 8.90512C17.7273 8.82989 17.7906 8.77158 17.8685 8.74301C20.4725 7.7835 23.3332 7.7835 25.9372 8.74301C26.0063 8.76809 26.0643 8.81677 26.1011 8.88045C26.1378 8.94414 26.1509 9.01875 26.138 9.09114C26.1251 9.16353 26.0871 9.22905 26.0307 9.27616C25.9742 9.32327 25.903 9.34895 25.8294 9.34867Z" fill="#B9B1E0"/>
<path d="M25.8294 12.658C25.7926 12.658 25.756 12.6512 25.7217 12.6377C23.257 11.7282 20.5486 11.7282 18.0839 12.6377C18.045 12.654 18.0032 12.6623 17.961 12.6621C17.9188 12.6618 17.8771 12.653 17.8384 12.6362C17.7997 12.6194 17.7648 12.5949 17.7358 12.5642C17.7069 12.5335 17.6844 12.4973 17.6698 12.4577C17.6553 12.4181 17.6489 12.376 17.651 12.3338C17.6532 12.2917 17.6639 12.2504 17.6825 12.2125C17.701 12.1746 17.7271 12.1409 17.759 12.1134C17.791 12.0858 17.8282 12.065 17.8684 12.0523C20.4721 11.0907 23.3335 11.0907 25.9371 12.0523C26.0062 12.0774 26.0643 12.126 26.101 12.1897C26.1378 12.2534 26.1509 12.328 26.138 12.4004C26.1251 12.4728 26.0871 12.5383 26.0307 12.5854C25.9742 12.6326 25.9029 12.6582 25.8294 12.658Z" fill="#B9B1E0"/>
<path d="M25.8294 15.9657C25.7927 15.9655 25.7563 15.9592 25.7217 15.9469C23.257 15.0374 20.5486 15.0374 18.0839 15.9469C18.045 15.9633 18.0032 15.9716 17.961 15.9713C17.9188 15.9711 17.8771 15.9623 17.8384 15.9455C17.7997 15.9286 17.7648 15.9042 17.7358 15.8735C17.7069 15.8428 17.6844 15.8066 17.6698 15.767C17.6553 15.7274 17.6489 15.6852 17.651 15.6431C17.6532 15.6009 17.6639 15.5597 17.6825 15.5218C17.701 15.4839 17.7271 15.4502 17.759 15.4226C17.791 15.3951 17.8282 15.3743 17.8684 15.3616C20.4721 14.4 23.3335 14.4 25.9371 15.3616C26.0052 15.3874 26.0621 15.4361 26.098 15.4994C26.1339 15.5628 26.1466 15.6366 26.1338 15.7083C26.121 15.7799 26.0836 15.8449 26.028 15.8919C25.9725 15.9389 25.9022 15.965 25.8294 15.9657Z" fill="#B9B1E0"/>
<path d="M25.8294 19.2749C25.7927 19.2748 25.7563 19.2685 25.7217 19.2562C23.257 18.3467 20.5486 18.3467 18.0839 19.2562C18.0061 19.2848 17.9201 19.2812 17.8448 19.2464C17.7696 19.2116 17.7113 19.1483 17.6827 19.0704C17.6541 18.9926 17.6577 18.9066 17.6925 18.8314C17.7273 18.7562 17.7906 18.6978 17.8685 18.6693C20.4725 17.7098 23.3332 17.7098 25.9372 18.6693C26.0063 18.6944 26.0643 18.743 26.1011 18.8067C26.1378 18.8704 26.1509 18.945 26.138 19.0174C26.1251 19.0898 26.0871 19.1553 26.0307 19.2024C25.9742 19.2495 25.903 19.2752 25.8294 19.2749Z" fill="#B9B1E0"/>
<path d="M26.0011 9.08329C25.9644 9.08315 25.928 9.07681 25.8934 9.06456C23.4286 8.15506 20.7202 8.15506 18.2555 9.06456C18.1777 9.09312 18.0917 9.0896 18.0165 9.05476C17.9412 9.01993 17.8829 8.95663 17.8543 8.8788C17.8258 8.80097 17.8293 8.71498 17.8641 8.63974C17.899 8.56451 17.9623 8.50619 18.0401 8.47763C20.6441 7.51812 23.5048 7.51812 26.1088 8.47763C26.1779 8.50271 26.2359 8.55139 26.2727 8.61507C26.3094 8.67876 26.3225 8.75337 26.3097 8.82576C26.2968 8.89815 26.2588 8.96367 26.2023 9.01078C26.1459 9.05789 26.0746 9.08357 26.0011 9.08329Z" fill="#DFDAFD"/>
<path d="M26.0011 12.3926C25.9642 12.3927 25.9276 12.3858 25.8933 12.3723C23.4286 11.4628 20.7202 11.4628 18.2555 12.3723C18.2166 12.3886 18.1748 12.3969 18.1326 12.3967C18.0904 12.3964 18.0487 12.3876 18.01 12.3708C17.9713 12.354 17.9364 12.3295 17.9075 12.2988C17.8785 12.2681 17.856 12.2319 17.8415 12.1923C17.8269 12.1527 17.8205 12.1106 17.8227 12.0684C17.8248 12.0263 17.8355 11.985 17.8541 11.9472C17.8727 11.9093 17.8987 11.8755 17.9307 11.848C17.9626 11.8204 17.9999 11.7997 18.0401 11.7869C20.6437 10.8253 23.5051 10.8253 26.1088 11.7869C26.1779 11.812 26.2359 11.8607 26.2727 11.9244C26.3094 11.988 26.3225 12.0626 26.3096 12.135C26.2968 12.2074 26.2587 12.273 26.2023 12.3201C26.1458 12.3672 26.0746 12.3929 26.0011 12.3926Z" fill="#DFDAFD"/>
<path d="M26.0011 15.7003C25.9644 15.7001 25.9279 15.6938 25.8933 15.6815C23.4286 14.772 20.7202 14.772 18.2555 15.6815C18.2166 15.6979 18.1748 15.7062 18.1326 15.706C18.0904 15.7057 18.0487 15.6969 18.01 15.6801C17.9713 15.6633 17.9364 15.6388 17.9075 15.6081C17.8785 15.5774 17.856 15.5412 17.8415 15.5016C17.8269 15.462 17.8205 15.4198 17.8227 15.3777C17.8248 15.3356 17.8355 15.2943 17.8541 15.2564C17.8727 15.2185 17.8987 15.1848 17.9307 15.1572C17.9626 15.1297 17.9999 15.1089 18.0401 15.0962C20.6437 14.1346 23.5051 14.1346 26.1088 15.0962C26.1768 15.122 26.2337 15.1708 26.2696 15.2341C26.3055 15.2974 26.3182 15.3712 26.3054 15.4429C26.2927 15.5145 26.2552 15.5795 26.1997 15.6265C26.1441 15.6735 26.0738 15.6996 26.0011 15.7003Z" fill="#DFDAFD"/>
<path d="M26.0011 19.0096C25.9644 19.0094 25.928 19.0031 25.8934 18.9908C23.4286 18.0813 20.7202 18.0813 18.2555 18.9908C18.217 19.005 18.176 19.0114 18.135 19.0097C18.094 19.008 18.0537 18.9983 18.0165 18.981C17.9792 18.9638 17.9457 18.9394 17.9179 18.9092C17.8901 18.879 17.8685 18.8436 17.8543 18.8051C17.8402 18.7665 17.8338 18.7256 17.8355 18.6846C17.8371 18.6435 17.8469 18.6033 17.8641 18.566C17.8814 18.5288 17.9058 18.4953 17.936 18.4675C17.9662 18.4396 18.0016 18.418 18.0401 18.4039C20.6441 17.4444 23.5048 17.4444 26.1088 18.4039C26.1779 18.429 26.2359 18.4777 26.2727 18.5413C26.3094 18.605 26.3225 18.6796 26.3097 18.752C26.2968 18.8244 26.2588 18.8899 26.2023 18.9371C26.1459 18.9842 26.0746 19.0098 26.0011 19.0096Z" fill="#DFDAFD"/>
<path d="M6.15495 9.08329C6.08142 9.08357 6.01016 9.05789 5.95371 9.01078C5.89726 8.96367 5.85925 8.89815 5.84638 8.82576C5.8335 8.75337 5.84659 8.67876 5.88334 8.61507C5.92008 8.55139 5.97813 8.50271 6.04724 8.47763C8.65123 7.51812 11.5119 7.51812 14.1159 8.47763C14.1545 8.49177 14.1898 8.51337 14.22 8.54119C14.2502 8.569 14.2746 8.60249 14.2919 8.63974C14.3091 8.677 14.3189 8.71728 14.3206 8.7583C14.3222 8.79931 14.3158 8.84026 14.3017 8.8788C14.2875 8.91734 14.2659 8.95271 14.2381 8.98291C14.2103 9.0131 14.1768 9.03751 14.1396 9.05476C14.1023 9.07201 14.062 9.08175 14.021 9.08343C13.98 9.08511 13.939 9.0787 13.9005 9.06456C11.4358 8.15506 8.72738 8.15506 6.26266 9.06456C6.22806 9.07681 6.19165 9.08315 6.15495 9.08329Z" fill="#DFDAFD"/>
<path d="M6.15495 12.3926C6.08142 12.3929 6.01016 12.3672 5.95371 12.3201C5.89726 12.273 5.85925 12.2074 5.84638 12.135C5.8335 12.0626 5.84659 11.988 5.88334 11.9244C5.92008 11.8607 5.97813 11.812 6.04724 11.7869C8.65086 10.8253 11.5123 10.8253 14.1159 11.7869C14.1561 11.7997 14.1934 11.8204 14.2253 11.848C14.2573 11.8755 14.2833 11.9093 14.3019 11.9472C14.3205 11.985 14.3312 12.0263 14.3333 12.0684C14.3355 12.1106 14.3291 12.1527 14.3145 12.1923C14.3 12.2319 14.2775 12.2681 14.2485 12.2988C14.2196 12.3295 14.1847 12.354 14.146 12.3708C14.1073 12.3876 14.0656 12.3964 14.0234 12.3967C13.9812 12.3969 13.9394 12.3886 13.9005 12.3723C11.4358 11.4628 8.72738 11.4628 6.26266 12.3723C6.22836 12.3858 6.19181 12.3927 6.15495 12.3926Z" fill="#DFDAFD"/>
<path d="M6.15492 15.7003C6.08214 15.6996 6.01189 15.6735 5.95631 15.6265C5.90074 15.5795 5.86333 15.5145 5.85055 15.4429C5.83777 15.3712 5.85044 15.2974 5.88635 15.2341C5.92226 15.1708 5.97916 15.122 6.04722 15.0962C8.65083 14.1346 11.5123 14.1346 14.1159 15.0962C14.1561 15.1089 14.1933 15.1297 14.2253 15.1572C14.2573 15.1848 14.2833 15.2185 14.3019 15.2564C14.3204 15.2943 14.3311 15.3356 14.3333 15.3777C14.3355 15.4198 14.3291 15.462 14.3145 15.5016C14.2999 15.5412 14.2775 15.5774 14.2485 15.6081C14.2196 15.6388 14.1847 15.6633 14.146 15.6801C14.1073 15.6969 14.0656 15.7057 14.0234 15.706C13.9812 15.7062 13.9394 15.6979 13.9005 15.6815C11.4358 14.772 8.72736 14.772 6.26263 15.6815C6.22804 15.6938 6.19162 15.7001 6.15492 15.7003Z" fill="#DFDAFD"/>
<path d="M6.15495 19.0096C6.08142 19.0098 6.01016 18.9842 5.95371 18.9371C5.89726 18.8899 5.85925 18.8244 5.84638 18.752C5.8335 18.6796 5.84659 18.605 5.88334 18.5413C5.92008 18.4777 5.97813 18.429 6.04724 18.4039C8.65123 17.4444 11.5119 17.4444 14.1159 18.4039C14.1545 18.418 14.1898 18.4396 14.22 18.4675C14.2502 18.4953 14.2746 18.5288 14.2919 18.566C14.3091 18.6033 14.3189 18.6435 14.3206 18.6846C14.3222 18.7256 14.3158 18.7665 14.3017 18.8051C14.2875 18.8436 14.2659 18.879 14.2381 18.9092C14.2103 18.9394 14.1768 18.9638 14.1396 18.981C14.1023 18.9983 14.062 19.008 14.021 19.0097C13.98 19.0114 13.939 19.005 13.9005 18.9908C11.4358 18.0813 8.72738 18.0813 6.26266 18.9908C6.22806 19.0031 6.19165 19.0094 6.15495 19.0096Z" fill="#DFDAFD"/>
<path d="M25.9232 9.1926C25.8865 9.19246 25.8501 9.18613 25.8155 9.17387C23.3508 8.26438 20.6424 8.26438 18.1776 9.17387C18.1391 9.18801 18.0982 9.19443 18.0571 9.19275C18.0161 9.19107 17.9758 9.18133 17.9386 9.16408C17.9013 9.14683 17.8678 9.12241 17.84 9.09222C17.8122 9.06203 17.7906 9.02665 17.7765 8.98811C17.7623 8.94958 17.7559 8.90863 17.7576 8.86761C17.7593 8.82659 17.769 8.78631 17.7863 8.74906C17.8035 8.7118 17.8279 8.67831 17.8581 8.6505C17.8883 8.62268 17.9237 8.60109 17.9622 8.58694C20.5662 7.62743 23.4269 7.62743 26.0309 8.58694C26.1 8.61203 26.1581 8.6607 26.1948 8.72438C26.2316 8.78807 26.2446 8.86268 26.2318 8.93507C26.2189 9.00746 26.1809 9.07298 26.1244 9.1201C26.068 9.16721 25.9967 9.19288 25.9232 9.1926Z" fill="#4D4C78"/>
<path d="M25.9232 12.5019C25.8863 12.502 25.8498 12.4951 25.8155 12.4816C23.3507 11.5721 20.6423 11.5721 18.1776 12.4816C18.1387 12.4979 18.0969 12.5063 18.0547 12.506C18.0125 12.5058 17.9708 12.4969 17.9321 12.4801C17.8934 12.4633 17.8585 12.4388 17.8296 12.4081C17.8006 12.3775 17.7782 12.3412 17.7636 12.3016C17.749 12.262 17.7426 12.2199 17.7448 12.1778C17.747 12.1356 17.7577 12.0944 17.7762 12.0565C17.7948 12.0186 17.8208 11.9848 17.8528 11.9573C17.8848 11.9298 17.922 11.909 17.9622 11.8962C20.5658 10.9347 23.4273 10.9347 26.0309 11.8962C26.1 11.9213 26.158 11.97 26.1948 12.0337C26.2315 12.0974 26.2446 12.172 26.2317 12.2444C26.2189 12.3167 26.1809 12.3823 26.1244 12.4294C26.068 12.4765 25.9967 12.5022 25.9232 12.5019Z" fill="#4D4C78"/>
<path d="M25.9232 15.8096C25.8865 15.8094 25.8501 15.8031 25.8155 15.7909C23.3507 14.8814 20.6423 14.8814 18.1776 15.7909C18.1387 15.8072 18.0969 15.8155 18.0547 15.8153C18.0125 15.815 17.9708 15.8062 17.9321 15.7894C17.8934 15.7726 17.8585 15.7481 17.8296 15.7174C17.8006 15.6867 17.7782 15.6505 17.7636 15.6109C17.749 15.5713 17.7426 15.5292 17.7448 15.487C17.747 15.4449 17.7577 15.4036 17.7762 15.3657C17.7948 15.3278 17.8208 15.2941 17.8528 15.2666C17.8848 15.239 17.922 15.2182 17.9622 15.2055C20.5658 14.2439 23.4273 14.2439 26.0309 15.2055C26.0989 15.2313 26.1558 15.2801 26.1917 15.3434C26.2277 15.4067 26.2403 15.4806 26.2275 15.5522C26.2148 15.6239 26.1774 15.6888 26.1218 15.7358C26.0662 15.7828 25.996 15.8089 25.9232 15.8096Z" fill="#4D4C78"/>
<path d="M25.9232 19.1188C25.8865 19.1187 25.8501 19.1123 25.8155 19.1001C23.3508 18.1906 20.6424 18.1906 18.1776 19.1001C18.1391 19.1142 18.0982 19.1206 18.0571 19.119C18.0161 19.1173 17.9758 19.1075 17.9386 19.0903C17.9013 19.073 17.8678 19.0486 17.84 19.0184C17.8122 18.9882 17.7906 18.9529 17.7765 18.9143C17.7623 18.8758 17.7559 18.8348 17.7576 18.7938C17.7593 18.7528 17.769 18.7125 17.7863 18.6753C17.8035 18.638 17.8279 18.6045 17.8581 18.5767C17.8883 18.5489 17.9237 18.5273 17.9622 18.5132C20.5662 17.5536 23.4269 17.5536 26.0309 18.5132C26.1 18.5382 26.1581 18.5869 26.1948 18.6506C26.2316 18.7143 26.2446 18.7889 26.2318 18.8613C26.2189 18.9337 26.1809 18.9992 26.1244 19.0463C26.068 19.0934 25.9967 19.1191 25.9232 19.1188Z" fill="#4D4C78"/>
<path d="M27.9915 7.27573C27.9915 6.924 27.7064 6.63885 27.3547 6.63885C27.0029 6.63885 26.7178 6.924 26.7178 7.27573V14.511C26.7178 14.8627 27.0029 15.1479 27.3547 15.1479C27.7064 15.1479 27.9915 14.8627 27.9915 14.511V7.27573Z" fill="#DFDAFD"/>
<path d="M16.0001 7.98125C16.0001 7.73124 15.7974 7.52856 15.5474 7.52856C15.2974 7.52856 15.0947 7.73124 15.0947 7.98125V12.5819C15.0947 12.8319 15.2974 13.0346 15.5474 13.0346C15.7974 13.0346 16.0001 12.8319 16.0001 12.5819V7.98125Z" fill="#DFDAFD"/>
<path d="M6.07682 9.1926C6.0033 9.19288 5.93203 9.16721 5.87558 9.1201C5.81913 9.07298 5.78112 9.00746 5.76825 8.93507C5.75538 8.86268 5.76847 8.78807 5.80521 8.72438C5.84196 8.6607 5.9 8.61203 5.96912 8.58694C8.5731 7.62743 11.4338 7.62743 14.0378 8.58694C14.0763 8.60109 14.1117 8.62268 14.1419 8.6505C14.1721 8.67831 14.1965 8.7118 14.2138 8.74906C14.231 8.78631 14.2408 8.82659 14.2424 8.86761C14.2441 8.90863 14.2377 8.94958 14.2236 8.98811C14.2094 9.02665 14.1878 9.06203 14.16 9.09222C14.1322 9.12241 14.0987 9.14683 14.0614 9.16408C14.0242 9.18133 13.9839 9.19107 13.9429 9.19275C13.9019 9.19443 13.8609 9.18801 13.8224 9.17387C11.3577 8.26438 8.64926 8.26438 6.18453 9.17387C6.14994 9.18613 6.11352 9.19246 6.07682 9.1926Z" fill="#4D4C78"/>
<path d="M6.07682 12.5019C6.0033 12.5022 5.93203 12.4765 5.87558 12.4294C5.81913 12.3823 5.78112 12.3167 5.76825 12.2444C5.75538 12.172 5.76847 12.0974 5.80521 12.0337C5.84196 11.97 5.9 11.9213 5.96912 11.8962C8.57273 10.9347 11.4342 10.9347 14.0378 11.8962C14.078 11.909 14.1152 11.9298 14.1472 11.9573C14.1792 11.9848 14.2052 12.0186 14.2238 12.0565C14.2423 12.0944 14.253 12.1356 14.2552 12.1778C14.2574 12.2199 14.251 12.262 14.2364 12.3016C14.2218 12.3412 14.1994 12.3775 14.1704 12.4081C14.1415 12.4388 14.1066 12.4633 14.0679 12.4801C14.0292 12.4969 13.9875 12.5058 13.9453 12.506C13.9031 12.5063 13.8613 12.4979 13.8224 12.4816C11.3577 11.5721 8.64926 11.5721 6.18453 12.4816C6.15023 12.4951 6.11369 12.502 6.07682 12.5019Z" fill="#4D4C78"/>
<path d="M6.0768 15.8096C6.00402 15.8089 5.93377 15.7828 5.87819 15.7358C5.82261 15.6888 5.7852 15.6239 5.77243 15.5522C5.75965 15.4806 5.77231 15.4067 5.80822 15.3434C5.84413 15.2801 5.90104 15.2313 5.96909 15.2055C8.57271 14.2439 11.4342 14.2439 14.0378 15.2055C14.078 15.2182 14.1152 15.239 14.1472 15.2666C14.1791 15.2941 14.2052 15.3278 14.2238 15.3657C14.2423 15.4036 14.253 15.4449 14.2552 15.487C14.2573 15.5292 14.251 15.5713 14.2364 15.6109C14.2218 15.6505 14.1994 15.6867 14.1704 15.7174C14.1414 15.7481 14.1065 15.7726 14.0678 15.7894C14.0291 15.8062 13.9874 15.815 13.9453 15.8153C13.9031 15.8155 13.8613 15.8072 13.8224 15.7909C11.3576 14.8814 8.64923 14.8814 6.18451 15.7909C6.14991 15.8031 6.1135 15.8094 6.0768 15.8096Z" fill="#4D4C78"/>
<path d="M6.07682 19.1188C6.0033 19.1191 5.93203 19.0934 5.87558 19.0463C5.81913 18.9992 5.78112 18.9337 5.76825 18.8613C5.75538 18.7889 5.76847 18.7143 5.80521 18.6506C5.84196 18.5869 5.9 18.5382 5.96912 18.5132C8.5731 17.5536 11.4338 17.5536 14.0378 18.5132C14.0763 18.5273 14.1117 18.5489 14.1419 18.5767C14.1721 18.6045 14.1965 18.638 14.2138 18.6753C14.231 18.7125 14.2408 18.7528 14.2424 18.7938C14.2441 18.8348 14.2377 18.8758 14.2236 18.9143C14.2094 18.9529 14.1878 18.9882 14.16 19.0184C14.1322 19.0486 14.0987 19.073 14.0614 19.0903C14.0242 19.1075 13.9839 19.1173 13.9429 19.119C13.9019 19.1206 13.8609 19.1142 13.8224 19.1001C11.3577 18.1906 8.64926 18.1906 6.18453 19.1001C6.14994 19.1123 6.11352 19.1187 6.07682 19.1188Z" fill="#4D4C78"/>
<path d="M25.8966 24.5026C25.8966 24.3319 25.7586 24.1935 25.5883 24.1935C25.4181 24.1935 25.28 24.3319 25.28 24.5026V25.5294C25.28 25.7001 25.4181 25.8385 25.5883 25.8385C25.7586 25.8385 25.8966 25.7001 25.8966 25.5294V24.5026Z" fill="#FAD564"/>
<path d="M29.607 9.38146C29.607 9.2168 29.4735 9.08331 29.3089 9.08331C29.1442 9.08331 29.0107 9.2168 29.0107 9.38146V15.8058C29.0107 15.9705 29.1442 16.104 29.3089 16.104C29.4735 16.104 29.607 15.9705 29.607 15.8058V9.38146Z" fill="#83D0FB"/>
</svg>
