<svg width="32" height="32" viewBox="0 0 32 32" fill="none" xmlns="http://www.w3.org/2000/svg">
<path fill-rule="evenodd" clip-rule="evenodd" d="M8.51416 19.4559V29.5352C8.51416 29.9395 8.3501 30.3063 8.08525 30.5711C7.81982 30.836 7.4542 31 7.04932 31C6.84072 31 6.64268 30.9567 6.46338 30.8781C5.946 30.652 5.58447 30.1358 5.58447 29.5352V19.4559C5.58447 19.0575 5.90732 18.734 6.30635 18.734L7.04902 18.1481L7.79229 18.734C8.19072 18.734 8.51416 19.0575 8.51416 19.4559Z" fill="#F36B7F"/>
<path fill-rule="evenodd" clip-rule="evenodd" d="M8.51416 19.4559V29.5352C8.51416 29.9395 8.3501 30.3063 8.08525 30.5711C7.81982 30.836 7.4542 31 7.04932 31C6.84072 31 6.64268 30.9567 6.46338 30.8781C6.63271 30.8043 6.78447 30.6995 6.91338 30.5711C7.17822 30.3063 7.34229 29.9395 7.34229 29.5352V19.4559C7.34229 19.0575 7.01885 18.734 6.62041 18.734H7.79229C8.19072 18.734 8.51416 19.0575 8.51416 19.4559Z" fill="#EE5168"/>
<path fill-rule="evenodd" clip-rule="evenodd" d="M18.1821 19.4559V29.5352C18.1821 29.9395 18.0181 30.3063 17.7532 30.5711C17.4878 30.836 17.1222 31 16.7173 31C16.5087 31 16.3106 30.9567 16.1313 30.8781C15.614 30.652 15.2524 30.1358 15.2524 29.5352V19.4559C15.2524 19.0575 15.5753 18.734 15.9743 18.734L16.717 18.1481L17.4603 18.734C17.8587 18.734 18.1821 19.0575 18.1821 19.4559Z" fill="#82B5A5"/>
<path fill-rule="evenodd" clip-rule="evenodd" d="M18.1821 19.4559V29.5352C18.1821 29.9395 18.0181 30.3063 17.7532 30.5711C17.4878 30.836 17.1222 31 16.7173 31C16.5087 31 16.3106 30.9567 16.1313 30.8781C16.3007 30.8043 16.4524 30.6995 16.5813 30.5711C16.8462 30.3063 17.0103 29.9395 17.0103 29.5352V19.4559C17.0103 19.0575 16.6868 18.734 16.2884 18.734H17.4603C17.8587 18.734 18.1821 19.0575 18.1821 19.4559Z" fill="#6EAC99"/>
<path fill-rule="evenodd" clip-rule="evenodd" d="M27.5159 21.7997V29.5352C27.5159 29.9395 27.3518 30.3063 27.087 30.5711C26.8215 30.836 26.4559 31 26.051 31C25.8424 31 25.6444 30.9567 25.4651 30.8781C24.9477 30.652 24.5862 30.1358 24.5862 29.5352V21.7997C24.5862 21.4013 24.909 21.0779 25.3081 21.0779L26.0507 20.4919L26.794 21.0779C27.1924 21.0779 27.5159 21.4013 27.5159 21.7997Z" fill="#F8CF61"/>
<path fill-rule="evenodd" clip-rule="evenodd" d="M27.5159 21.7997V29.5352C27.5159 29.9395 27.3518 30.3063 27.087 30.5711C26.8215 30.836 26.4559 31 26.051 31C25.8424 31 25.6444 30.9567 25.4651 30.8781C25.6344 30.8043 25.7862 30.6995 25.9151 30.5711C26.1799 30.3063 26.344 29.9395 26.344 29.5352V21.7997C26.344 21.4013 26.0206 21.0779 25.6221 21.0779H26.794C27.1924 21.0779 27.5159 21.4013 27.5159 21.7997Z" fill="#EEC453"/>
<path fill-rule="evenodd" clip-rule="evenodd" d="M10.0979 1.43945V10.4945C10.0979 11.2738 9.68125 11.9939 9.00566 12.3824L8.05762 12.9268V16.4998C8.33887 16.7664 8.51406 17.1437 8.51406 17.5621V18.0121C8.51406 18.4111 8.19062 18.734 7.79219 18.734H6.30625C5.90781 18.734 5.58437 18.4111 5.58437 18.0121V17.5621C5.58437 17.1426 5.76074 16.7647 6.04316 16.4975V12.9268L5.09394 12.3818C4.41719 11.9939 4 11.2738 4 10.494V1.43945C4 1.19688 4.19688 1 4.43945 1C4.68262 1 4.87891 1.19687 4.87891 1.43945V8.03827H5.70859V1.43945C5.70859 1.19688 5.90547 1 6.14804 1C6.39062 1 6.5875 1.19687 6.5875 1.43945V8.03827H7.48926C7.48867 8.03593 7.48867 8.03359 7.48867 8.03125V1.43945C7.48867 1.19688 7.68555 1 7.92812 1C8.17129 1 8.36758 1.19687 8.36758 1.43945V8.03827H9.21953C9.21953 8.03593 9.21894 8.03359 9.21894 8.03125V1.43945C9.21894 1.19688 9.41582 1 9.6584 1C9.90156 1 10.0979 1.19687 10.0979 1.43945Z" fill="#9FBFFF"/>
<path fill-rule="evenodd" clip-rule="evenodd" d="M10.0979 9.10938V10.4945C10.0979 11.2738 9.68135 11.9939 9.00576 12.3824L8.05772 12.9268V16.4998C8.33897 16.7664 8.51416 17.1437 8.51416 17.5621V18.0121C8.51416 18.4111 8.19072 18.734 7.79229 18.734H6.30635C5.90791 18.734 5.58447 18.4111 5.58447 18.0121V17.7379H7.34229C7.43938 17.7379 7.51807 17.6592 7.51807 17.5621C7.51807 17.3869 7.42666 17.2738 7.37158 17.2223C7.17354 17.0342 7.06162 16.7729 7.06162 16.4998V12.9268C7.06162 12.5699 7.25205 12.2406 7.56143 12.0631L8.50947 11.5182C8.8751 11.3084 10.0979 10.4945 10.0979 9.10938Z" fill="#9FBFFF"/>
<path fill-rule="evenodd" clip-rule="evenodd" d="M17.7257 12.4053V16.4998C18.0069 16.7664 18.1821 17.1437 18.1821 17.5621V18.0121C18.1821 18.4111 17.8587 18.734 17.4603 18.734H15.9743C15.5759 18.734 15.2524 18.4111 15.2524 18.0121V17.5621C15.2524 17.1426 15.4288 16.7647 15.7112 16.4975V12.4059C13.9979 12.0244 12.7329 10.6053 12.7329 7.92813C12.7329 4.74883 14.5165 1 16.7173 1C18.3175 1 19.6968 2.98165 20.3308 5.28555C20.5687 6.1504 20.7017 7.06036 20.7017 7.92813C20.7017 10.6041 19.4378 12.0232 17.7257 12.4053Z" fill="#9FBFFF"/>
<path fill-rule="evenodd" clip-rule="evenodd" d="M27.5159 19.9059V20.3559C27.5159 20.7549 27.1925 21.0777 26.794 21.0777H25.3081C24.9091 21.0777 24.5862 20.7549 24.5862 20.3559V19.9059C24.5862 19.4863 24.762 19.1084 25.0444 18.8412V16.6668H23.8784C23.712 16.6668 23.5767 16.532 23.5767 16.3656V5.04533C23.5767 3.36134 24.581 1.88125 26.0634 1.22617C26.2597 1.13946 26.4647 1.06682 26.6769 1.01057C26.8696 0.959591 27.0595 1.10138 27.0595 1.30119V18.8436C27.3401 19.1102 27.5159 19.4875 27.5159 19.9059Z" fill="#9FBFFF"/>
<path fill-rule="evenodd" clip-rule="evenodd" d="M17.7257 12.4052V16.4998C18.0069 16.7664 18.1821 17.1437 18.1821 17.5621V18.0121C18.1821 18.4111 17.8587 18.7339 17.4603 18.7339H15.9743C15.5759 18.7339 15.2524 18.4111 15.2524 18.0121V17.7379H17.0103C17.1075 17.7379 17.186 17.6593 17.186 17.5621C17.186 17.4742 17.1632 17.4027 17.1333 17.3459C17.1034 17.289 17.0671 17.248 17.0396 17.2222C16.8415 17.0341 16.7296 16.7728 16.7296 16.4998V12.458C16.7296 12.1011 16.92 11.7718 17.2294 11.5943L18.1774 11.0494C18.5319 10.8461 20.23 10.0703 20.3308 5.28552C20.5687 6.15037 20.7017 7.06033 20.7017 7.9281C20.7017 10.6041 19.4378 12.0232 17.7257 12.4052Z" fill="#9FBFFF"/>
<path fill-rule="evenodd" clip-rule="evenodd" d="M27.5161 19.9059V20.3559C27.5161 20.7549 27.1927 21.0777 26.7942 21.0777H25.3083C24.9093 21.0777 24.5864 20.7549 24.5864 20.3559V20.0816H26.3442C26.4415 20.0816 26.52 20.0031 26.52 19.9059C26.52 19.818 26.4972 19.7465 26.4673 19.6896C26.4374 19.6328 26.4011 19.5918 26.3735 19.566C26.1755 19.3779 26.0636 19.1166 26.0636 18.8436V1.22617C26.2599 1.13946 26.4649 1.06682 26.677 1.01057C26.8698 0.959591 27.0597 1.10138 27.0597 1.30119V18.8436C27.3403 19.1102 27.5161 19.4875 27.5161 19.9059Z" fill="#9FBFFF"/>
</svg>
