<svg width="32" height="32" viewBox="0 0 32 32" fill="none" xmlns="http://www.w3.org/2000/svg">
<g clip-path="url(#clip0_250_551)">
<path d="M23.3357 7.68059C23.3357 8.41695 22.7391 9.01361 22.0027 9.01361H9.99685C9.26049 9.01361 8.66333 8.41695 8.66333 7.68059V1.33302C8.66333 0.596661 9.26055 0 9.99685 0H22.0026C22.739 0 23.3357 0.596661 23.3357 1.33302L23.3357 7.68059Z" fill="#ED5564"/>
<path d="M27.3337 27.9999C27.3337 30.2089 25.5427 31.9999 23.3338 31.9999H8.66625C6.45724 31.9999 4.66626 30.2089 4.66626 27.9999V10.666C4.66626 8.457 6.45724 6.66595 8.66625 6.66595H23.3337C25.5426 6.66595 27.3336 8.457 27.3336 10.666L27.3337 27.9999Z" fill="#E6E9ED"/>
<path d="M23.3338 6.66602H21.9998C24.2088 6.66602 25.9997 8.45706 25.9997 10.6661V28C25.9997 30.209 24.2088 32 21.9998 32H23.3338C25.5427 32 27.3337 30.209 27.3337 28V10.666C27.3337 8.457 25.5427 6.66602 23.3338 6.66602Z" fill="#CCD1D9"/>
<path d="M12.6782 0V2.66604C12.6782 3.03418 12.9766 3.33301 13.3448 3.33301C13.713 3.33301 14.0113 3.03418 14.0113 2.66604V0H12.6782Z" fill="#DA4453"/>
<path d="M17.9998 0V2.66604C17.9998 3.03418 18.2986 3.33301 18.6658 3.33301C19.0349 3.33301 19.3338 3.03418 19.3338 2.66604V0H17.9998Z" fill="#DA4453"/>
<path d="M19.9997 17.3329C20.7331 17.3329 21.3337 17.9335 21.3337 18.666V20C21.3337 20.7333 20.7332 21.3329 19.9997 21.3329H11.9998C11.2664 21.3329 10.6663 20.7333 10.6663 20V18.666C10.6663 17.9335 11.2664 17.3329 11.9998 17.3329H19.9997Z" fill="#DA4453"/>
<path d="M17.9997 23.3329C17.9997 24.0664 17.4001 24.666 16.6662 24.666H15.3332C14.5999 24.666 13.9998 24.0664 13.9998 23.3329V15.333C13.9998 14.5997 14.5999 14 15.3332 14H16.6662C17.4001 14 17.9997 14.5997 17.9997 15.333V23.3329Z" fill="#ED5564"/>
</g>
<defs>
<clipPath id="clip0_250_551">
<rect width="32" height="32" fill="white"/>
</clipPath>
</defs>
</svg>
