<svg width="32" height="32" viewBox="0 0 32 32" fill="none" xmlns="http://www.w3.org/2000/svg">
<g clip-path="url(#clip0_250_498)">
<path d="M29.2175 27.826H9.73921L8.3479 11.826H30.6088L29.2175 27.826Z" fill="#AF7AAE"/>
<path d="M30.6088 10.4348V11.8261L30.4878 13.2174H8.4689L8.3479 11.8261V10.4348H30.6088Z" fill="#8E5B8E"/>
<path d="M32 9.04347V10.4348C32 11.2032 31.3772 11.8261 30.6087 11.8261H8.34786C7.57942 11.8261 6.95654 11.2032 6.95654 10.4348V9.04347C6.95654 8.27504 7.57942 7.65216 8.34786 7.65216H30.6087C31.3772 7.65216 32 8.27504 32 9.04347Z" fill="#D199D1"/>
<path d="M29.9131 27.1304C29.9131 28.283 28.9787 29.2174 27.8261 29.2174H23.533C23.6099 29.435 23.6523 29.669 23.6523 29.913C23.6523 31.0655 22.7179 31.9999 21.5653 31.9999H2.08694C0.934312 32 0 31.0656 0 29.913C0 28.7605 0.934312 27.8261 2.08694 27.8261H6.38006C6.30312 27.6085 6.26081 27.3744 6.26081 27.1305C6.26081 25.9779 7.19512 25.0435 8.34775 25.0435H27.826C28.9787 25.0435 29.9131 25.9779 29.9131 27.1304ZM24.2106 9.73242C24.5159 9.7621 24.8021 9.69123 25.0434 9.55148V12.4884C25.0434 13.2428 25.6301 13.8853 26.384 13.9121C27.1755 13.9403 27.826 13.307 27.826 12.5217V7.65217C27.826 7.26798 27.5146 6.95654 27.1304 6.95654H25.7391H25.0434H23.6521C23.2679 6.95654 22.9565 7.26798 22.9565 7.65217V8.31617C22.9565 9.03736 23.4929 9.6626 24.2106 9.73242Z" fill="#A7E5CB"/>
<path d="M11.1305 27.1305C11.1305 27.5147 10.819 27.8261 10.4349 27.8261H8.34792C7.96373 27.8261 7.65229 27.5147 7.65229 27.1305C7.65229 26.7463 7.96373 26.4348 8.34792 26.4348H10.4349C10.819 26.4348 11.1305 26.7463 11.1305 27.1305ZM7.65223 29.2174H2.08698C1.70279 29.2174 1.39136 29.5288 1.39136 29.913C1.39136 30.2972 1.70279 30.6087 2.08698 30.6087H7.65217C8.03636 30.6087 8.34779 30.2972 8.34779 29.913C8.34779 29.5288 8.03642 29.2174 7.65223 29.2174ZM26.4349 8.34784C26.0507 8.34784 25.7392 8.65928 25.7392 9.04346V12.5217C25.7392 12.9059 26.0507 13.2173 26.4349 13.2173C26.819 13.2173 27.1305 12.9059 27.1305 12.5217V9.04346C27.1305 8.65928 26.819 8.34784 26.4349 8.34784Z" fill="#D7F3FF"/>
<path d="M22.2609 23.6522H26.4348C29.5084 23.6522 32 26.1438 32 29.2174V31.3043C32 31.6885 31.6885 32 31.3044 32H18.0869C15.0133 32 12.5217 29.5083 12.5217 26.4348V21.5652C12.5217 20.7968 13.1446 20.1739 13.913 20.1739H19.4782C20.2467 20.1739 20.8695 20.7968 20.8695 21.5652V22.2608C20.8695 23.0293 21.4924 23.6522 22.2609 23.6522Z" fill="#A89B80"/>
<path d="M32.0001 29.2174V32H20.8696C17.796 32 15.3044 29.5084 15.3044 26.4348V21.5653C15.3044 20.7968 15.9273 20.174 16.6958 20.174H19.4784C20.2468 20.174 20.8697 20.7968 20.8697 21.5653V22.2609C20.8697 23.0293 21.4926 23.6522 22.261 23.6522H25.0436H26.4349C29.5084 23.6522 32.0001 26.1438 32.0001 29.2174Z" fill="#C1B291"/>
<path d="M31.9999 29.2173V32H23.6521C20.5785 32 18.0869 29.5083 18.0869 26.4348V23.6522C18.0869 26.7258 20.5785 29.2173 23.6521 29.2173H31.9999Z" fill="#A89B80"/>
<path d="M31.2535 26.4348H23.6521C20.5785 26.4348 18.0869 23.9432 18.0869 20.8696V20.174H19.4782C20.2467 20.174 20.8695 20.7969 20.8695 21.5653V22.2609C20.8695 23.0294 21.4924 23.6523 22.2609 23.6523H26.4348C28.4942 23.6522 30.2912 24.7718 31.2535 26.4348Z" fill="#DBCBA1"/>
<path d="M18.087 1.39131V16.6957V18.087H15.3044V16.6956V1.39131C15.3044 0.622875 15.9273 0 16.6957 0C17.4641 0 18.087 0.622875 18.087 1.39131Z" fill="#91F18B"/>
<path d="M16.6957 1.39131V18.0869H15.3044V1.39131C15.3044 0.622875 15.9273 0 16.6957 0C16.9494 0 17.1866 0.069 17.3913 0.187625C16.9759 0.428313 16.6957 0.876687 16.6957 1.39131Z" fill="#6BAF6E"/>
<path d="M21.5653 19.4782C21.5653 20.2467 20.9424 20.8696 20.174 20.8696H13.2175C12.449 20.8696 11.8262 20.2467 11.8262 19.4782C11.8262 18.7098 12.449 18.0869 13.2175 18.0869H14.6088V17.3913C14.6088 17.0071 14.9202 16.6957 15.3044 16.6957H18.087C18.4712 16.6957 18.7827 17.0071 18.7827 17.3913V18.0869H20.174C20.9424 18.0869 21.5653 18.7098 21.5653 19.4782Z" fill="#FFC248"/>
<path d="M21.5653 19.4782H11.8262C11.8262 18.7098 12.449 18.0869 13.2175 18.0869H20.174C20.9424 18.0869 21.5653 18.7098 21.5653 19.4782Z" fill="#FFFF63"/>
</g>
<defs>
<clipPath id="clip0_250_498">
<rect width="32" height="32" fill="white"/>
</clipPath>
</defs>
</svg>
