<svg width="32" height="32" viewBox="0 0 32 32" fill="none" xmlns="http://www.w3.org/2000/svg">
<path fill-rule="evenodd" clip-rule="evenodd" d="M30.0415 24.4216L30.0782 24.3849L8.61505 2.92158L6.16896 2.91432C5.97219 3.11109 2.73722 6.34608 2.12629 6.95689C1.9579 7.12534 1.9579 7.39823 2.12629 7.56663C2.21046 7.6508 2.3208 7.69288 2.43114 7.69288C2.54147 7.69288 2.65181 7.6508 2.73597 7.56663L5.86407 4.43854L6.48105 5.05552L3.35296 8.18361C3.18457 8.35206 3.18457 8.62496 3.35296 8.79335C3.43713 8.87752 3.54746 8.9196 3.6578 8.9196C3.76814 8.9196 3.87847 8.87752 3.96264 8.79335L7.09073 5.66526L7.70772 6.28224L4.57963 9.41033C4.41123 9.57878 4.41123 9.85168 4.57963 10.0201C4.66379 10.1042 4.77413 10.1463 4.88447 10.1463C4.9948 10.1463 5.10514 10.1042 5.18931 10.0201L8.3174 6.89198L8.93439 7.50896L5.80624 10.6369C5.63785 10.8053 5.63785 11.0782 5.80624 11.2466C5.89041 11.3308 6.00074 11.3729 6.11108 11.3729C6.22141 11.3729 6.33175 11.3308 6.41592 11.2466L9.54401 8.11854L10.161 8.73552L7.03296 11.8635C6.86457 12.032 6.86457 12.3049 7.03296 12.4733C7.11713 12.5575 7.22746 12.5995 7.3378 12.5995C7.44814 12.5995 7.55847 12.5575 7.64264 12.4733L10.7707 9.34519L11.3877 9.96219L8.25963 13.0902C8.09123 13.2587 8.09123 13.5316 8.25963 13.7C8.3438 13.7841 8.45413 13.8262 8.56447 13.8262C8.6748 13.8262 8.78514 13.7841 8.86931 13.7L11.9974 10.5719L12.6144 11.1889L9.4863 14.3169C9.3179 14.4854 9.3179 14.7583 9.4863 14.9267C9.57046 15.0108 9.6808 15.0529 9.79113 15.0529C9.90147 15.0529 10.0118 15.0108 10.096 14.9267L13.2241 11.7986L13.8411 12.4156L10.713 15.5437C10.5446 15.7122 10.5446 15.9851 10.713 16.1535C10.7972 16.2376 10.9075 16.2797 11.0179 16.2797C11.1282 16.2797 11.2385 16.2376 11.3227 16.1535L14.4508 13.0254L19.9744 18.549L16.8463 21.6771C16.678 21.8456 16.678 22.1184 16.8463 22.2868C16.9306 22.371 17.0409 22.4131 17.1512 22.4131C17.2616 22.4131 17.3719 22.371 17.4561 22.2868L20.5842 19.1587L21.2012 19.7757L18.0732 22.9038C17.9048 23.0722 17.9048 23.3451 18.0732 23.5135C18.1574 23.5977 18.2677 23.6398 18.3781 23.6398C18.4884 23.6398 18.5988 23.5977 18.683 23.5135L21.811 20.3855L22.4279 21.0024L19.2999 24.1304C19.1315 24.2989 19.1315 24.5718 19.2999 24.7402C19.3841 24.8244 19.4945 24.8664 19.6048 24.8664C19.7151 24.8664 19.8255 24.8244 19.9097 24.7402L23.0377 21.6121L23.6547 22.2291L20.5266 25.3572C20.3582 25.5257 20.3582 25.7986 20.5266 25.967C20.6109 26.0511 20.7212 26.0932 20.8315 26.0932C20.9419 26.0932 21.0522 26.0511 21.1364 25.967L24.2645 22.8389L24.8814 23.4558L21.7534 26.5839C21.585 26.7523 21.585 27.0252 21.7534 27.1936C21.8376 27.2778 21.9479 27.3199 22.0582 27.3199C22.1685 27.3199 22.2789 27.2778 22.3631 27.1936L25.4912 24.0655L26.1082 24.6825L22.9801 27.8106C22.8117 27.979 22.8117 28.2519 22.9801 28.4203C23.0643 28.5045 23.1746 28.5465 23.285 28.5465C23.3953 28.5465 23.5056 28.5045 23.5899 28.4203L26.718 25.2922L27.3349 25.9091L29.781 26.5262C30.3514 25.9553 30.4382 25.084 30.0415 24.4216Z" fill="#F36B7F"/>
<path fill-rule="evenodd" clip-rule="evenodd" d="M30.0563 23.7532L9.21735 2.91425C8.37691 2.07382 7.00934 2.07389 6.16896 2.91432L27.6467 24.3922C27.6491 24.3945 27.6513 24.3968 27.6537 24.3991C27.9827 24.7331 27.9689 25.2747 27.6374 25.6062L24.2065 29.0371C24.0381 29.2056 24.0381 29.4785 24.2065 29.6469C24.2907 29.731 24.4011 29.7731 24.5114 29.7731C24.6217 29.7731 24.7321 29.731 24.8163 29.6469L27.9444 26.5188L28.5613 27.1357L25.4332 30.2638C25.2648 30.4323 25.2648 30.7051 25.4332 30.8735C25.5174 30.9577 25.6278 30.9998 25.7381 30.9998C25.8485 30.9998 25.9588 30.9577 26.043 30.8735L30.0856 26.8309C30.5012 26.4152 30.7262 25.8598 30.7166 25.2705C30.7073 24.6992 30.4604 24.1573 30.0563 23.7532Z" fill="#EE5168"/>
<path fill-rule="evenodd" clip-rule="evenodd" d="M30.7422 2.2575C31.0582 2.57349 31.0872 3.07668 30.8083 3.42582C25.4249 10.1633 19.8209 16.7483 14.0571 23.1604L8.34918 24.6456C7.00356 26.0248 4.79379 26.0282 3.44211 24.6768C2.09412 23.3292 2.09418 21.1481 3.44211 19.8005C4.88498 18.3579 7.27108 18.4768 8.56232 20.0704C9.03855 19.6394 9.86522 18.9153 9.86522 18.9153L30.7422 2.2575ZM4.66142 23.4578C5.33374 24.13 6.42776 24.13 7.10013 23.4578C7.77246 22.7856 7.77246 21.6918 7.10013 21.0196C6.42776 20.3473 5.33368 20.3474 4.66142 21.0196C3.98745 21.6934 3.98751 22.7841 4.66142 23.4578Z" fill="#9FBFFF"/>
<path fill-rule="evenodd" clip-rule="evenodd" d="M14.0571 23.1604C13.6727 23.588 13.3131 24.015 12.9272 24.4414C13.0206 24.5171 13.1108 24.5978 13.1969 24.684C13.8483 25.3352 14.2071 26.2011 14.2071 27.1221C14.2071 28.0431 13.8483 28.9091 13.1969 29.5603C12.5246 30.2326 11.6414 30.5686 10.7582 30.5686C9.78899 30.5686 8.81981 30.1639 8.12914 29.3543C7.65913 28.8032 7.37372 28.1126 7.31946 27.3903C7.24288 26.3703 7.60527 25.3981 8.31956 24.684L8.31871 24.6831V24.6776L8.31945 24.6769C8.3297 24.6666 8.3391 24.6559 8.34918 24.6456L9.64574 23.3493C10.8408 22.1545 10.9449 20.2153 9.86522 18.9153C10.2928 18.5311 10.6993 18.1473 11.1283 17.7648C17.1342 12.4094 23.2846 7.21535 29.5737 2.19155C29.9229 1.9126 30.4261 1.9415 30.7422 2.2575L13.2909 19.705C12.8545 20.1413 12.6471 20.7546 12.7217 21.367C12.7227 21.3754 12.7238 21.3838 12.7247 21.3922C12.7915 21.9599 13.1001 22.4739 13.579 22.7862C13.7534 22.9 13.8959 23.0247 14.0571 23.1604ZM10.7582 25.3982C9.21579 25.3982 8.46315 27.2657 9.53892 28.3413C10.6262 29.4283 12.4828 28.6466 12.4826 27.1223C12.4826 26.1692 11.7113 25.3982 10.7582 25.3982Z" fill="#80A3EA"/>
</svg>
