<svg width="32" height="32" viewBox="0 0 32 32" fill="none" xmlns="http://www.w3.org/2000/svg">
<path d="M17.5209 12.2943C14.6828 12.2943 12.3738 9.98531 12.3738 7.14716C12.3738 4.30901 14.6828 2 17.5209 2C20.3591 2 22.6681 4.30901 22.6681 7.14716C22.6681 9.98531 20.3591 12.2943 17.5209 12.2943Z" fill="#BF0F36"/>
<path d="M17.5209 12.2943C17.5209 9.82286 17.5209 3.90573 17.5209 2C20.3591 2 22.6681 4.30901 22.6681 7.14716C22.6681 9.98531 20.3591 12.2943 17.5209 12.2943Z" fill="#9D092B"/>
<path d="M19.6655 6.3398L18.3282 5.00246L17.5209 5.80982L16.7136 5.00246L15.3762 6.3398L16.1836 7.14716L15.3762 7.95446L16.7136 9.29174L17.5209 8.4845L18.3282 9.29174L19.6655 7.95446L18.8583 7.14716L19.6655 6.3398Z" fill="#F1F1F1"/>
<path d="M3.42578 15.533L8.05057 21.0785L9.50313 19.8671L4.87833 14.3216L3.42578 15.533Z" fill="#F4DA49"/>
<path d="M2.89129 12.8673H1V14.9275H2.89129V12.8673Z" fill="#8B8B8B"/>
<path d="M2.89129 6.77854H1V8.83879H2.89129V6.77854Z" fill="#444444"/>
<path d="M5.72825 9.82292H3.83696V11.8832H5.72825V9.82292Z" fill="#6F6F6F"/>
<path d="M26.8519 19.5271L24.1063 13.982H10.9356L8.1899 19.5271H1V27.4188H30V19.5271H26.8519Z" fill="#FDEB89"/>
<path d="M30 19.5271H26.8519L24.1063 13.982L17.5209 13.9821V27.4188H30V19.5271Z" fill="#EAB86D"/>
<path d="M24.7415 19.5271H18.4666V15.8734H22.9323L24.7415 19.5271Z" fill="#67B5F8"/>
<path d="M12.1095 15.8734H16.5753V19.5271H10.3003L12.1095 15.8734Z" fill="#C2E2FD"/>
<path d="M24.1479 29.6254C22.4098 29.6254 20.9958 28.2113 20.9958 26.4732C20.9958 24.7351 22.4099 23.3211 24.1479 23.3211C25.886 23.3211 27.3001 24.7351 27.3001 26.4732C27.3001 28.2113 25.886 29.6254 24.1479 29.6254Z" fill="#444444"/>
<path d="M7.04548 29.6254C5.30735 29.6254 3.89332 28.2113 3.89332 26.4732C3.89332 24.7351 5.30741 23.3211 7.04548 23.3211C8.78356 23.3211 10.1976 24.7351 10.1976 26.4732C10.1976 28.2113 8.78361 29.6254 7.04548 29.6254Z" fill="#6F6F6F"/>
</svg>
