<svg width="32" height="32" viewBox="0 0 32 32" fill="none" xmlns="http://www.w3.org/2000/svg">
<g clip-path="url(#clip0_250_427)">
<path d="M18.4744 18.6768H19.454V15.4249H18.4744L17.8213 17.0509L18.4744 18.6768Z" fill="#0096E7"/>
<path d="M18.4744 23.1178H19.454V19.866H18.4744L17.8213 21.4919L18.4744 23.1178Z" fill="#0096E7"/>
<path d="M18.4744 27.5588H19.454V24.3069H18.4744L17.8213 25.9329L18.4744 27.5588Z" fill="#0096E7"/>
<path d="M18.4744 31.9997H19.454V28.7479H18.4744L17.8213 30.3738L18.4744 31.9997Z" fill="#0096E7"/>
<path d="M13.5759 15.4252H11.6167V18.6771H13.5759V15.4252Z" fill="#00CCFF"/>
<path d="M16.5149 15.4252H14.5557V18.6771H16.5149V15.4252Z" fill="#00CCFF"/>
<path d="M16.5149 19.8662H14.5557V23.1181H16.5149V19.8662Z" fill="#00CCFF"/>
<path d="M16.5149 24.3072H14.5557V27.559H16.5149V24.3072Z" fill="#00CCFF"/>
<path d="M22.3926 15.4252H20.4333V18.6771H22.3926V15.4252Z" fill="#0096E7"/>
<path d="M22.3926 19.8662H20.4333V23.1181H22.3926V19.8662Z" fill="#0096E7"/>
<path d="M22.3926 24.3072H20.4333V27.559H22.3926V24.3072Z" fill="#0096E7"/>
<path d="M22.3926 28.7481H20.4333V32H22.3926V28.7481Z" fill="#0096E7"/>
<path d="M25.3315 15.4252H23.3723V18.6771H25.3315V15.4252Z" fill="#0096E7"/>
<path d="M25.3315 19.8662H23.3723V23.1181H25.3315V19.8662Z" fill="#0096E7"/>
<path d="M10.3543 0L9.0481 3.68578L10.3543 7.37157C12.3899 7.37157 14.0401 5.72139 14.0401 3.68578C14.0401 1.65017 12.3898 0 10.3543 0Z" fill="#7C7C7C"/>
<path d="M19.454 9.54719H17.4947V4.66541H9.0481V2.70612H19.454V9.54719Z" fill="#4E4E4E"/>
<path d="M18.474 15.4252H17.4944V18.6771H18.474V15.4252Z" fill="#00CCFF"/>
<path d="M18.474 19.8662H17.4944V23.1181H18.474V19.8662Z" fill="#00CCFF"/>
<path d="M18.474 24.3072H17.4944V27.559H18.474V24.3072Z" fill="#00CCFF"/>
<path d="M18.474 28.7481H17.4944V32H18.474V28.7481Z" fill="#00CCFF"/>
<path d="M18.4744 7.58795L17.1682 10.5269L18.4744 13.4658H24.3522C24.3522 10.2195 21.7206 7.58795 18.4744 7.58795Z" fill="#BDBDBD"/>
<path d="M12.5964 13.4657H18.4742V7.58795C15.228 7.58795 12.5964 10.2195 12.5964 13.4657Z" fill="#E4E4E4"/>
<path d="M6.66846 3.68578C6.66846 5.72139 8.31863 7.37157 10.3542 7.37157V0C8.31863 0 6.66846 1.65017 6.66846 3.68578Z" fill="#BDBDBD"/>
</g>
<defs>
<clipPath id="clip0_250_427">
<rect width="32" height="32" fill="white"/>
</clipPath>
</defs>
</svg>
