<svg width="32" height="32" viewBox="0 0 32 32" fill="none" xmlns="http://www.w3.org/2000/svg">
<path fill-rule="evenodd" clip-rule="evenodd" d="M30 26.7485V26.237C30 25.4085 29.3285 24.737 28.5 24.737H3.5C2.6715 24.737 2 25.4085 2 26.237V26.7485C2 27.577 2.6715 28.2485 3.5 28.2485H28.5C29.3285 28.2485 30 27.577 30 26.7485Z" fill="#F5F0E5"/>
<path fill-rule="evenodd" clip-rule="evenodd" d="M29.0666 24.848C29.1381 25.0225 29.1776 25.214 29.1776 25.4145V25.926C29.1776 26.7545 28.5056 27.426 27.6776 27.426H2.6776C2.4771 27.426 2.2856 27.3865 2.1106 27.3155C2.3341 27.863 2.8721 28.2485 3.5001 28.2485H28.5001C29.3286 28.2485 30.0001 27.577 30.0001 26.7485V26.237C30.0001 25.609 29.6141 25.0715 29.0666 24.848Z" fill="#EADEC7"/>
<path fill-rule="evenodd" clip-rule="evenodd" d="M26.125 25.737C26.401 25.737 26.625 25.513 26.625 25.237V13.698C26.625 12.8695 25.9535 12.198 25.125 12.198H6.875C6.0465 12.198 5.375 12.8695 5.375 13.698V25.237C5.375 25.513 5.599 25.737 5.875 25.737H26.125Z" fill="#F8CF61"/>
<path fill-rule="evenodd" clip-rule="evenodd" d="M22.0769 12.198C22.9054 12.198 23.5769 12.8695 23.5769 13.698V25.237C23.5769 25.513 23.3534 25.737 23.0769 25.737H26.1249C26.4009 25.737 26.6249 25.513 26.6249 25.237V13.698C26.6249 12.8695 25.9534 12.198 25.1249 12.198H22.0769Z" fill="#E1B338"/>
<path fill-rule="evenodd" clip-rule="evenodd" d="M26.625 22.738L18.1905 22.7255H5.375V25.237C5.375 25.513 5.599 25.737 5.875 25.737H26.125C26.401 25.737 26.625 25.513 26.625 25.237V22.738Z" fill="#C59A2A"/>
<path fill-rule="evenodd" clip-rule="evenodd" d="M23.577 22.7355V23.5135C23.577 23.7895 23.3535 24.0135 23.077 24.0135H5.375V25.237C5.375 25.513 5.599 25.737 5.875 25.737H26.125C26.401 25.737 26.625 25.513 26.625 25.237V22.738L23.577 22.7355Z" fill="#E1B338"/>
<path fill-rule="evenodd" clip-rule="evenodd" d="M15.4941 6.23253V12.659C15.4941 12.935 15.7181 13.1588 15.9941 13.1588C16.2701 13.1588 16.4941 12.935 16.4941 12.659V6.23253C16.4941 5.95694 16.2701 5.73273 15.9941 5.73273C15.7181 5.73273 15.4941 5.95694 15.4941 6.23253Z" fill="#F5F0E5"/>
<path fill-rule="evenodd" clip-rule="evenodd" d="M5.375 15.877L6.541 17.585C6.7255 17.855 7.0315 18.017 7.3585 18.017C7.6855 18.017 7.9915 17.855 8.176 17.585C8.566 17.0135 9.0315 16.3315 9.4215 15.7605C9.606 15.49 9.912 15.3285 10.239 15.3285C10.566 15.3285 10.872 15.49 11.0565 15.7605C11.4465 16.3315 11.912 17.0135 12.302 17.585C12.4865 17.855 12.7925 18.017 13.1195 18.017C13.4465 18.017 13.7525 17.855 13.937 17.585C14.327 17.0135 14.7925 16.3315 15.1825 15.7605C15.367 15.49 15.673 15.3285 16 15.3285C16.327 15.3285 16.633 15.49 16.8175 15.7605C17.2075 16.3315 17.673 17.0135 18.063 17.585C18.2475 17.855 18.5535 18.017 18.8805 18.017C19.2075 18.017 19.5135 17.855 19.698 17.585C20.088 17.0135 20.5535 16.3315 20.9435 15.7605C21.128 15.49 21.434 15.3285 21.761 15.3285C22.088 15.3285 22.394 15.49 22.5785 15.7605C22.9685 16.3315 23.434 17.0135 23.824 17.585C24.0085 17.855 24.3145 18.017 24.6415 18.017C24.9685 18.017 25.2745 17.855 25.459 17.585L26.625 15.877V13.698C26.625 12.8695 25.9535 12.198 25.125 12.198H6.875C6.0465 12.198 5.375 12.8695 5.375 13.698V15.877Z" fill="#E1B338"/>
<path fill-rule="evenodd" clip-rule="evenodd" d="M22.0769 12.198C22.9054 12.198 23.5769 12.8695 23.5769 13.698V17.2235L23.8239 17.585C24.0084 17.855 24.3144 18.017 24.6414 18.017C24.9684 18.017 25.2744 17.855 25.4589 17.585L26.6249 15.877V13.698C26.6249 12.8695 25.9534 12.198 25.1249 12.198H22.0769Z" fill="#C59A2A"/>
<path fill-rule="evenodd" clip-rule="evenodd" d="M15.5101 3.98547L15.4946 4.51047C15.4866 4.78597 15.7041 5.01647 15.9801 5.02447C16.2556 5.03247 16.4861 4.81497 16.4941 4.53947L16.5096 4.01447C16.5176 3.73847 16.3001 3.50797 16.0241 3.49997C15.7481 3.49197 15.5181 3.70947 15.5101 3.98547Z" fill="#F0682D"/>
</svg>
