<svg width="24" height="24" viewBox="0 0 24 24" fill="none" xmlns="http://www.w3.org/2000/svg">
<path fill-rule="evenodd" clip-rule="evenodd" d="M20.6004 6.10324C19.7454 5.6882 18.7121 6.04617 18.297 6.90115L17.5759 8.38687L16.1524 7.69583C16.7297 7.39957 17.1939 6.92703 17.4823 6.33292C17.834 5.60849 17.8825 4.79044 17.6189 4.02951C17.3553 3.26859 16.8112 2.65579 16.0867 2.30417C15.3623 1.95255 14.5442 1.90408 13.7833 2.16763C13.0224 2.43124 12.4097 2.97537 12.058 3.6998C11.7696 4.29392 11.6855 4.95096 11.8098 5.58786L8.83566 4.1442C7.98073 3.72916 6.94736 4.08713 6.53235 4.94211L5.05844 7.97843C4.64339 8.83347 5.00134 9.86673 5.85637 10.2818C6.7113 10.6968 7.7446 10.3389 8.15968 9.48392L8.88089 7.9982L9.58331 8.33914C9.21722 9.0748 8.40836 10.7187 6.59436 14.4322L4.75597 13.5398C4.29628 13.3166 3.77596 13.2863 3.29079 13.4543C2.80563 13.6224 2.41559 13.9682 2.19244 14.4278C1.73051 15.3794 2.12886 16.5293 3.08047 16.9913L6.64336 18.7208C7.59497 19.1828 8.74496 18.7843 9.20685 17.8327L10.1464 15.8972L13.2309 17.4054L12.3384 19.2441C11.8765 20.1957 12.2748 21.3457 13.2265 21.8076C13.4955 21.9382 13.7803 22 14.0611 22C14.7732 22 15.4586 21.602 15.7899 20.9195L17.5194 17.3567C17.9813 16.4051 17.5829 15.2551 16.6313 14.7932L14.1939 13.61C14.8126 12.325 15.1669 11.5819 15.371 11.1486L17.621 12.2408C18.0341 12.4413 18.5016 12.4687 18.9375 12.3176C19.3734 12.1666 19.7238 11.856 19.9244 11.4429L21.3983 8.40659C21.8133 7.55161 21.4554 6.5184 20.6004 6.10324V6.10324ZM13.057 5.60977C12.8985 5.15219 12.9277 4.66025 13.1392 4.22464C13.3506 3.78897 13.7191 3.46176 14.1767 3.30325C14.6342 3.14475 15.1261 3.17392 15.5618 3.38541C15.9975 3.59683 16.3247 3.96536 16.4832 4.42288C16.6417 4.88052 16.6125 5.37241 16.4011 5.80801C16.1896 6.24368 15.8211 6.57089 15.3636 6.7294C14.9513 6.87228 14.5112 6.86209 14.1094 6.70413L13.8526 6.5795C13.4799 6.36154 13.1998 6.02207 13.057 5.60977ZM20.3171 7.88175L18.8432 10.9181C18.7828 11.0424 18.6766 11.136 18.5441 11.182C18.4116 11.2279 18.2701 11.2199 18.1459 11.1596L15.3448 9.7999C15.1875 9.72354 15.0046 9.71951 14.844 9.78885C14.6929 9.85416 14.5756 9.97836 14.5187 10.132C14.4278 10.3476 13.451 12.3837 12.8511 13.628C12.7072 13.9264 12.832 14.2849 13.13 14.4297L16.1064 15.8745C16.4618 16.047 16.6106 16.4765 16.4381 16.8319L14.7086 20.3947C14.5361 20.7502 14.1067 20.899 13.7512 20.7264C13.3958 20.5539 13.247 20.1244 13.4195 19.769L14.5737 17.3913C14.7183 17.0933 14.5946 16.7345 14.2971 16.589L10.1329 14.5528C10.0499 14.5122 9.95953 14.4918 9.86888 14.4918C9.80286 14.4918 9.73663 14.5027 9.67302 14.5246C9.52206 14.5766 9.39803 14.6866 9.32831 14.8302L8.1256 17.308C7.95308 17.6633 7.52365 17.8122 7.16818 17.6396L3.60532 15.9101C3.24993 15.7376 3.10114 15.3081 3.27364 14.9527C3.35657 14.7818 3.50236 14.653 3.6842 14.5901C3.86601 14.5271 4.06024 14.5381 4.23111 14.621L6.60878 15.7752C6.90685 15.92 7.26576 15.7961 7.41119 15.4983C8.73979 12.7777 10.7583 8.65482 10.9113 8.37009C10.9928 8.23209 11.016 8.06662 10.9747 7.91061C10.9298 7.74155 10.8136 7.60037 10.6562 7.52402L8.86511 6.65457C8.72173 6.58493 8.55658 6.57517 8.40599 6.62729C8.2554 6.67954 8.13168 6.78934 8.06209 6.93271L7.07848 8.95902C6.95284 9.21787 6.63998 9.32626 6.38123 9.20059C6.12238 9.07492 6.01401 8.76212 6.13965 8.50333L7.61356 5.46701C7.73923 5.20816 8.052 5.09976 8.31084 5.22543L17.5916 9.73056C17.735 9.80014 17.9001 9.80991 18.0508 9.75778C18.2014 9.7056 18.3251 9.59573 18.3947 9.45236L19.3783 7.42606C19.5039 7.16721 19.8166 7.05881 20.0755 7.18454C20.3343 7.31015 20.4427 7.62296 20.3171 7.88175V7.88175Z" fill="#BDBDBD"/>
</svg>
