<svg width="24" height="24" viewBox="0 0 24 24" fill="none" xmlns="http://www.w3.org/2000/svg">
<path fill-rule="evenodd" clip-rule="evenodd" d="M3.61047 12.6985C3.61047 8.07309 7.37372 4.30981 11.9992 4.30981C16.6246 4.30981 20.3879 8.07309 20.3879 12.6985C20.3879 17.3242 16.6249 21.0875 11.9992 21.0875C7.37375 21.0875 3.61047 17.3242 3.61047 12.6985ZM5.13106 12.6989C5.13106 16.4859 8.2121 19.5672 11.9992 19.5672C15.7863 19.5672 18.8673 16.4861 18.8673 12.6989C18.8673 8.91178 15.7863 5.83074 11.9992 5.83074C8.21205 5.83074 5.13106 8.91178 5.13106 12.6989Z" fill="#BDBDBD"/>
<path fill-rule="evenodd" clip-rule="evenodd" d="M14.3307 12.4453H12.3033V9.50542C12.3033 9.08547 11.9629 8.74506 11.543 8.74506C11.123 8.74506 10.7827 9.08547 10.7827 9.50542V13.2056C10.7827 13.6255 11.123 13.9658 11.543 13.9658H14.3308C14.7507 13.9658 15.0911 13.6255 15.0911 13.2056C15.091 12.7856 14.7507 12.4453 14.3307 12.4453V12.4453Z" fill="#BDBDBD"/>
<path fill-rule="evenodd" clip-rule="evenodd" d="M7.69251 18.1402C7.38028 17.8591 6.89951 17.8848 6.61873 18.1967L4.33779 20.7311C4.05671 21.043 4.08231 21.5238 4.39428 21.8047C4.5395 21.9357 4.72148 22 4.9027 22C5.11078 22 5.31809 21.9151 5.46812 21.7481L7.74905 19.2138C8.03008 18.9018 8.00448 18.421 7.69251 18.1402V18.1402Z" fill="#BDBDBD"/>
<path fill-rule="evenodd" clip-rule="evenodd" d="M19.6608 20.7312L17.3798 18.1968C17.0995 17.8846 16.6185 17.8592 16.3063 18.1403C15.994 18.4211 15.9689 18.9019 16.2498 19.2139L18.5307 21.7482C18.6805 21.915 18.8878 21.9999 19.0959 21.9999C19.2768 21.9999 19.4588 21.9355 19.6043 21.8047C19.9165 21.5239 19.9416 21.0431 19.6608 20.7312V20.7312Z" fill="#BDBDBD"/>
<path fill-rule="evenodd" clip-rule="evenodd" d="M2.13523 3.11371C3.61759 1.63117 6.05281 1.62887 7.56354 3.10815C7.70872 3.25036 7.79088 3.44445 7.79187 3.64749C7.7929 3.85047 7.71281 4.04537 7.56934 4.18908L3.21028 8.54812C3.062 8.69617 2.86736 8.7707 2.67273 8.7707C2.48064 8.7707 2.2888 8.69847 2.14078 8.55375C1.41063 7.83856 1.00565 6.88207 1.00005 5.86048C0.994728 4.82649 1.39769 3.85101 2.13523 3.11371V3.11371ZM2.52069 5.85235C2.52245 6.20513 2.60383 6.54475 2.75615 6.85162L5.8602 3.74752C5.53886 3.595 5.19012 3.51871 4.84266 3.51871C4.24837 3.51871 3.65733 3.74203 3.21028 4.18881C2.7622 4.63687 2.51738 5.22789 2.52069 5.85235V5.85235Z" fill="#BDBDBD"/>
<path fill-rule="evenodd" clip-rule="evenodd" d="M16.4345 3.10783C17.9452 1.62855 20.3805 1.63105 21.8631 3.11339C22.6004 3.85089 23.0036 4.82644 22.9983 5.8601C22.9929 6.88175 22.5879 7.83817 21.8575 8.55309C21.7098 8.69836 21.5177 8.77058 21.3256 8.77058C21.1309 8.77058 20.9363 8.69632 20.788 8.5478L16.429 4.18869C16.2855 4.04533 16.2052 3.85015 16.2062 3.64711C16.2072 3.4442 16.2896 3.25004 16.4345 3.10783V3.10783ZM18.1382 3.74754L21.2422 6.85164C21.3945 6.54498 21.4759 6.20515 21.4777 5.85257C21.481 5.22784 21.2362 4.63709 20.7881 4.18903C20.0797 3.48068 19.0095 3.33393 18.1382 3.74754Z" fill="#BDBDBD"/>
</svg>
