<svg width="24" height="24" viewBox="0 0 24 24" fill="none" xmlns="http://www.w3.org/2000/svg">
<path d="M14.4301 2C14.5775 2 14.7211 2.04801 14.8403 2.13709C14.9594 2.22617 15.0479 2.35174 15.093 2.49571L15.8589 4.93714C16.1806 5.09857 16.4883 5.28 16.7822 5.48429L19.2275 4.94429C19.3717 4.91271 19.5219 4.92889 19.6566 4.99051C19.7912 5.05212 19.9033 5.15599 19.9767 5.28714L21.9069 8.71429C21.9806 8.84537 22.0118 8.99707 21.996 9.14753C21.9802 9.29798 21.9183 9.43941 21.8191 9.55143L20.1411 11.4514C20.1655 11.8158 20.1655 12.1814 20.1411 12.5457L21.8191 14.4486C21.9183 14.5606 21.9802 14.702 21.996 14.8525C22.0118 15.0029 21.9806 15.1546 21.9069 15.2857L19.9767 18.7143C19.9031 18.8452 19.7909 18.9488 19.6563 19.0101C19.5217 19.0715 19.3716 19.0874 19.2275 19.0557L16.7822 18.5157C16.4897 18.7186 16.1806 18.9014 15.8603 19.0629L15.093 21.5043C15.0479 21.6483 14.9594 21.7738 14.8403 21.8629C14.7211 21.952 14.5775 22 14.4301 22H10.5699C10.4225 22 10.2789 21.952 10.1597 21.8629C10.0406 21.7738 9.95213 21.6483 9.90702 21.5043L9.1425 19.0643C8.82167 18.9033 8.51223 18.7196 8.21643 18.5143L5.77246 19.0557C5.62828 19.0873 5.47805 19.0711 5.34341 19.0095C5.20877 18.9479 5.09667 18.844 5.02325 18.7129L3.09314 15.2857C3.01944 15.1546 2.98822 15.0029 3.00399 14.8525C3.01976 14.702 3.0817 14.5606 3.18088 14.4486L4.85893 12.5457C4.83462 12.1823 4.83462 11.8177 4.85893 11.4543L3.18088 9.55143C3.0817 9.43941 3.01976 9.29798 3.00399 9.14753C2.98822 8.99707 3.01944 8.84537 3.09314 8.71429L5.02325 5.28571C5.09687 5.15482 5.20906 5.05125 5.34368 4.9899C5.47831 4.92855 5.62843 4.91258 5.77246 4.94429L8.21643 5.48571C8.51166 5.28143 8.82081 5.09714 9.1425 4.93571L9.90841 2.49571C9.95338 2.35221 10.0414 2.22697 10.16 2.13793C10.2786 2.04889 10.4216 2.00061 10.5685 2H14.4287H14.4301ZM13.9204 3.42857H11.0796L10.2886 5.95286L9.75523 6.22C9.49303 6.35162 9.23992 6.5015 8.99767 6.66857L8.5047 7.01143L5.97578 6.45143L4.55535 8.97714L6.28911 10.9457L6.24733 11.5514C6.22732 11.8501 6.22732 12.1499 6.24733 12.4486L6.28911 13.0543L4.55256 15.0229L5.97438 17.5486L8.5033 16.99L8.99628 17.3314C9.23853 17.4985 9.49164 17.6484 9.75384 17.78L10.2872 18.0471L11.0796 20.5714H13.9232L14.717 18.0457L15.2489 17.78C15.5109 17.6487 15.7635 17.4988 16.0051 17.3314L16.4967 16.99L19.027 17.5486L20.4474 15.0229L18.7123 13.0543L18.7541 12.4486C18.7741 12.1494 18.7741 11.8492 18.7541 11.55L18.7123 10.9443L20.4488 8.97714L19.027 6.45143L16.4967 7.00857L16.0051 6.66857C15.7636 6.50116 15.5109 6.35127 15.2489 6.22L14.717 5.95429L13.9218 3.42857H13.9204ZM12.5 7.71429C13.608 7.71429 14.6706 8.16582 15.4541 8.96954C16.2376 9.77327 16.6777 10.8634 16.6777 12C16.6777 13.1366 16.2376 14.2267 15.4541 15.0305C14.6706 15.8342 13.608 16.2857 12.5 16.2857C11.392 16.2857 10.3294 15.8342 9.5459 15.0305C8.76242 14.2267 8.32227 13.1366 8.32227 12C8.32227 10.8634 8.76242 9.77327 9.5459 8.96954C10.3294 8.16582 11.392 7.71429 12.5 7.71429ZM12.5 9.14286C11.7613 9.14286 11.0529 9.44388 10.5306 9.97969C10.0083 10.5155 9.71485 11.2422 9.71485 12C9.71485 12.7578 10.0083 13.4845 10.5306 14.0203C11.0529 14.5561 11.7613 14.8571 12.5 14.8571C13.2387 14.8571 13.9471 14.5561 14.4694 14.0203C14.9917 13.4845 15.2852 12.7578 15.2852 12C15.2852 11.2422 14.9917 10.5155 14.4694 9.97969C13.9471 9.44388 13.2387 9.14286 12.5 9.14286Z" fill="#BDBDBD"/>
</svg>
