<svg width="32" height="32" viewBox="0 0 32 32" fill="none" xmlns="http://www.w3.org/2000/svg">
<path fill-rule="evenodd" clip-rule="evenodd" d="M6.90427 11.8979C6.72094 11.8979 6.54144 11.8054 6.43801 11.6374C6.10199 11.0929 5.4743 10.463 4.75356 10.486C4.4471 10.4696 4.19864 10.2572 4.18989 9.9557C4.18058 9.65307 4.41809 9.40079 4.72017 9.39149C5.87324 9.35701 6.85666 10.231 7.36944 11.0633C7.52814 11.3205 7.44824 11.6577 7.19103 11.8164C7.10183 11.8716 7.00223 11.8979 6.90427 11.8979Z" fill="#436B1C"/>
<path fill-rule="evenodd" clip-rule="evenodd" d="M18.1049 4.61063C18.0316 3.54457 17.1456 2.70181 16.0609 2.70181C16.0577 2.70181 16.0549 2.70236 16.0516 2.70236C16.0708 2.54092 16.0598 2.37018 16.0079 2.19232C15.8612 1.69213 15.4212 1.30796 14.9035 1.24612C14.4788 1.19578 14.0892 1.34791 13.8161 1.61771C13.5562 1.38293 13.2158 1.23627 12.8382 1.23627C12.0288 1.23627 11.3732 1.89242 11.3732 2.70126C11.3732 2.704 11.3737 2.70619 11.3737 2.70892C10.3903 2.78335 9.61482 3.60369 9.61482 4.60626C9.61482 4.75949 9.63508 4.90779 9.66901 5.05063C8.49843 5.09933 7.56371 6.06143 7.56371 7.24405C7.56371 7.64464 7.67261 8.01895 7.85977 8.34238C7.50022 8.63789 7.27039 9.08609 7.27039 9.58792C7.27039 10.0465 7.46466 10.4575 7.77222 10.7503C9.0922 9.67166 10.4789 13.2792 12.112 16.1594C12.6543 17.116 18.5138 16.097 18.9806 16.6913C19.5125 16.213 19.8562 7.88378 19.8709 7.1521C19.8939 5.97824 19.1486 4.97674 18.1049 4.61063Z" fill="#82B5A5"/>
<path fill-rule="evenodd" clip-rule="evenodd" d="M18.8541 15.5207L19.2443 15.2871C19.9667 14.8536 20.8686 14.8536 21.5904 15.2871L21.9806 15.5207C22.703 15.9542 23.6049 15.9542 24.3267 15.5207L25.4294 15.0304C25.5914 14.5784 25.7041 14.2511 25.749 14.1061C26.7778 10.7968 27.4406 7.31245 27.5309 3.83683C27.567 2.43914 26.4112 0.259413 24.4909 1.24995C22.6034 2.22297 21.2517 5.95471 20.3016 7.72672C18.9521 10.2446 17.885 12.9831 17.1248 15.7736C17.7038 15.9197 18.3266 15.837 18.8541 15.5207Z" fill="#F8CF61"/>
<path fill-rule="evenodd" clip-rule="evenodd" d="M4.62659 14.9587L5.36264 15.4003C6.20815 15.9076 7.26435 15.9076 8.10986 15.4003L8.29923 15.2865C9.0216 14.8531 9.92348 14.8531 10.6453 15.2865L11.0355 15.5202C11.4596 15.7746 11.9456 15.8753 12.4206 15.831C12.7709 14.6998 12.6532 13.2857 12.1103 12.3286C10.2847 9.10797 8.76603 9.76413 7.30486 11.1624C7.02466 11.4305 6.68208 11.627 6.30885 11.7337C4.70649 12.1918 3.52387 12.941 4.19644 14.9811C4.3152 14.8947 4.48047 14.8711 4.62659 14.9587Z" fill="#F36B7F"/>
<path fill-rule="evenodd" clip-rule="evenodd" d="M20.2436 14.3293C20.1856 14.3293 20.126 14.32 20.0679 14.3003C19.7817 14.2029 19.6285 13.8921 19.7259 13.6059C20.0909 12.5321 21.2632 11.9575 22.3352 12.3187C22.8382 12.49 23.386 12.2197 23.5567 11.7168C23.6536 11.4305 23.9633 11.2762 24.2512 11.3742C24.5374 11.4716 24.6906 11.7824 24.5932 12.0686C24.2287 13.1429 23.0576 13.7197 21.9839 13.3558C21.4815 13.185 20.9337 13.4559 20.7624 13.9578C20.6842 14.1865 20.4713 14.3293 20.2436 14.3293Z" fill="#E1B338"/>
<path fill-rule="evenodd" clip-rule="evenodd" d="M21.5379 10.5166C21.4799 10.5166 21.4202 10.5073 21.3622 10.4876C21.076 10.3902 20.9228 10.0794 21.0202 9.79314C21.1969 9.2727 21.5658 8.85186 22.0583 8.60887C22.5508 8.36589 23.1085 8.32924 23.6295 8.506C24.1335 8.67784 24.6802 8.40694 24.851 7.90346C24.9478 7.6167 25.2587 7.46291 25.5449 7.56087C25.8311 7.65828 25.9843 7.96914 25.8869 8.25536C25.5224 9.33017 24.3513 9.90588 23.2776 9.54305C23.0341 9.45987 22.7725 9.47683 22.5421 9.59066C22.3117 9.70449 22.1393 9.90096 22.0561 10.145C21.979 10.3732 21.7661 10.5166 21.5379 10.5166Z" fill="#E1B338"/>
<path fill-rule="evenodd" clip-rule="evenodd" d="M22.8327 6.70333C22.7747 6.70333 22.715 6.69404 22.6565 6.67434C22.3702 6.57693 22.217 6.2661 22.3144 5.97989C22.634 5.03751 23.6623 4.53184 24.6047 4.85034C24.7853 4.91163 24.9779 4.89958 25.1481 4.81585C25.3183 4.73212 25.4458 4.58657 25.5071 4.40652C25.604 4.12031 25.9143 3.96652 26.2016 4.06393C26.4878 4.16134 26.641 4.47217 26.5436 4.75839C26.3882 5.21535 26.0648 5.58475 25.6324 5.79763C25.1996 6.01106 24.7098 6.04226 24.2528 5.88739C23.8818 5.76097 23.4768 5.96072 23.3509 6.3323C23.2732 6.55996 23.0603 6.70333 22.8327 6.70333Z" fill="#E1B338"/>
<path fill-rule="evenodd" clip-rule="evenodd" d="M13.5551 8.71394C13.0379 9.40184 12.2219 10.2162 12.5361 11.6543L13.381 15.5207L13.7718 15.287C14.4941 14.8536 15.396 14.8536 16.1179 15.287L16.5081 15.5207C16.8255 15.7112 17.1248 15.7736 17.1248 15.7736C17.6951 13.6814 18.4377 11.6188 19.3423 9.65633C18.9187 8.59684 18.0141 8.24221 17.3574 7.87938C17.3536 7.87719 17.3497 7.87501 17.3464 7.87337C16.9311 7.63531 16.9054 7.06671 17.2178 6.70442C17.341 6.56159 17.3979 6.36512 17.3552 6.16811L17.289 5.86604C17.2162 5.53331 16.8846 5.32097 16.5524 5.39375L13.2267 6.1194C12.894 6.19219 12.6816 6.52382 12.7544 6.856L12.8206 7.1581C12.8644 7.35949 13.0034 7.51547 13.1796 7.59154C13.5841 7.76611 13.8309 8.21758 13.624 8.60667C13.6043 8.64334 13.5813 8.67892 13.5551 8.71394Z" fill="#9FBFFF"/>
<path fill-rule="evenodd" clip-rule="evenodd" d="M17.0444 6.96494L13.2798 7.78745C12.8644 7.8783 12.4496 7.61234 12.3588 7.19697L12.3046 6.94962C12.2137 6.53426 12.4797 6.11945 12.8951 6.0286L16.6596 5.20606C17.075 5.11522 17.4898 5.38118 17.5807 5.79655L17.6349 6.04392C17.7257 6.45984 17.4597 6.8741 17.0444 6.96494Z" fill="white"/>
<path fill-rule="evenodd" clip-rule="evenodd" d="M26.386 14.8635L25.4311 28.5607C25.361 29.9283 24.232 31.0009 22.8628 31.0009H7.50078C6.13155 31.0009 5.00256 29.9283 4.93252 28.5607L4.00054 15.3128C3.98467 15.0014 4.32232 14.7984 4.58993 14.9587L5.32599 15.4003C6.1715 15.9076 7.22771 15.9076 8.07322 15.4003L8.26256 15.2865C8.98494 14.8531 9.88682 14.8531 10.6086 15.2865L10.9988 15.5207C11.7212 15.9541 12.6231 15.9541 13.3449 15.5207L13.7351 15.2865C14.4575 14.8531 15.3594 14.8531 16.0812 15.2865L16.4714 15.5207C17.1938 15.9541 18.0956 15.9541 18.8175 15.5207L19.2077 15.2865C19.9301 14.8531 20.8319 14.8531 21.5538 15.2865L21.9439 15.5207C22.6663 15.9541 23.5682 15.9541 24.29 15.5207L26.1436 14.6971C26.2613 14.6446 26.3926 14.7349 26.386 14.8635Z" fill="#FCF0E3"/>
<path fill-rule="evenodd" clip-rule="evenodd" d="M10.567 23.9851H6.73625C6.43417 23.9851 6.18901 23.7405 6.18901 23.4379C6.18901 23.1352 6.43417 22.8906 6.73625 22.8906H10.567C10.8691 22.8906 11.1143 23.1352 11.1143 23.4379C11.1143 23.7405 10.8691 23.9851 10.567 23.9851Z" fill="#FBDCBA"/>
<path fill-rule="evenodd" clip-rule="evenodd" d="M11.6616 26.1742H6.73625C6.43417 26.1742 6.18901 25.9295 6.18901 25.6269C6.18901 25.3243 6.43417 25.0797 6.73625 25.0797H11.6616C11.9636 25.0797 12.2088 25.3243 12.2088 25.6269C12.2088 25.9295 11.9636 26.1742 11.6616 26.1742Z" fill="#FBDCBA"/>
<path fill-rule="evenodd" clip-rule="evenodd" d="M12.7561 28.3632H6.73625C6.43417 28.3632 6.18901 28.1186 6.18901 27.8159C6.18901 27.5133 6.43417 27.2686 6.73625 27.2686H12.7561C13.0582 27.2686 13.3033 27.5133 13.3033 27.8159C13.3033 28.1186 13.0582 28.3632 12.7561 28.3632Z" fill="#FBDCBA"/>
<path fill-rule="evenodd" clip-rule="evenodd" d="M16.0396 28.3632H14.9451C14.643 28.3632 14.3978 28.1186 14.3978 27.8159C14.3978 27.5133 14.643 27.2686 14.9451 27.2686H16.0396C16.3417 27.2686 16.5869 27.5133 16.5869 27.8159C16.5869 28.1186 16.3417 28.3632 16.0396 28.3632Z" fill="#FBDCBA"/>
</svg>
